<svg xmlns="http://www.w3.org/2000/svg" xmlns:xlink="http://www.w3.org/1999/xlink" width="100" zoomAndPan="magnify" viewBox="0 0 75 74.999997" height="100" preserveAspectRatio="xMidYMid meet" version="1.0"><defs><clipPath id="id1"><path d="M 1.355469 1.355469 L 75 1.355469 L 75 75 L 1.355469 75 Z M 1.355469 1.355469 " clip-rule="nonzero"/></clipPath></defs><g clip-path="url(#id1)"><path fill="#3a5a98" d="M 1.355469 37.796875 C 1.355469 17.671875 17.6875 1.355469 37.824219 1.355469 C 57.964844 1.355469 74.28125 17.671875 74.28125 37.796875 C 74.28125 57.921875 57.949219 74.238281 37.824219 74.238281 C 17.6875 74.238281 1.355469 57.921875 1.355469 37.796875 " fill-opacity="1" fill-rule="nonzero"/></g><path fill="#345387" d="M 63.609375 12.085938 C 77.855469 26.316406 77.855469 49.394531 63.609375 63.625 C 49.367188 77.855469 26.285156 77.855469 12.042969 63.625 Z M 63.609375 12.085938 " fill-opacity="1" fill-rule="nonzero"/><path fill="#2e4d72" d="M 74.046875 41.898438 L 47.675781 15.539062 L 33.972656 29.226562 L 34.78125 30.035156 L 26.992188 37.824219 L 33.371094 44.207031 L 32.535156 45.042969 L 39.441406 51.953125 L 31.476562 59.90625 L 45.085938 73.503906 C 60.433594 70.417969 72.28125 57.6875 74.046875 41.898438 " fill-opacity="1" fill-rule="nonzero"/><path fill="#ffffff" d="M 31.445312 24.257812 L 31.445312 30.371094 L 26.960938 30.371094 L 26.960938 37.839844 L 31.445312 37.839844 L 31.445312 60.050781 L 40.648438 60.050781 L 40.648438 37.839844 L 46.820312 37.839844 C 46.820312 37.839844 47.394531 34.253906 47.675781 30.34375 C 46.867188 30.34375 40.675781 30.34375 40.675781 30.34375 C 40.675781 30.34375 40.675781 25.992188 40.675781 25.226562 C 40.675781 24.464844 41.675781 23.433594 42.675781 23.433594 L 47.691406 23.433594 C 47.691406 22.417969 47.691406 18.90625 47.691406 15.65625 C 45.101562 15.65625 42.164062 15.65625 40.867188 15.65625 C 31.226562 15.65625 31.445312 23.140625 31.445312 24.257812 " fill-opacity="1" fill-rule="nonzero"/></svg>