<svg xmlns="http://www.w3.org/2000/svg" xmlns:xlink="http://www.w3.org/1999/xlink" width="100" zoomAndPan="magnify" viewBox="0 0 75 74.999997" height="100" preserveAspectRatio="xMidYMid meet" version="1.0"><defs><clipPath id="id1"><path d="M 1.683594 1.683594 L 74 1.683594 L 74 74 L 1.683594 74 Z M 1.683594 1.683594 " clip-rule="nonzero"/></clipPath></defs><g clip-path="url(#id1)"><path fill="#4a86c5" d="M 1.683594 37.796875 C 1.683594 17.855469 17.855469 1.683594 37.796875 1.683594 C 57.742188 1.683594 73.914062 17.855469 73.914062 37.796875 C 73.914062 57.742188 57.742188 73.914062 37.796875 73.914062 C 17.855469 73.914062 1.683594 57.742188 1.683594 37.796875 Z M 1.683594 37.796875 " fill-opacity="1" fill-rule="nonzero"/></g><path fill="#3d80b2" d="M 63.328125 12.265625 C 77.433594 26.371094 77.433594 49.238281 63.328125 63.328125 C 49.226562 77.433594 26.359375 77.433594 12.265625 63.328125 Z M 63.328125 12.265625 " fill-opacity="1" fill-rule="nonzero"/><path fill="#4a86c5" d="M 72.195312 48.816406 C 72.324219 48.410156 72.441406 47.988281 72.558594 47.566406 C 72.441406 47.988281 72.324219 48.410156 72.195312 48.816406 " fill-opacity="1" fill-rule="nonzero"/><path fill="#377ca5" d="M 72.558594 47.566406 L 52.996094 28.003906 L 48.539062 32.457031 L 45.453125 29.355469 L 42.878906 31.933594 L 27.753906 16.808594 L 26.824219 16.445312 L 21.015625 22.253906 L 28.015625 29.253906 L 21.160156 36.109375 L 27.855469 42.804688 L 20.535156 50.128906 L 43.824219 73.386719 C 57.230469 71.132812 68.132812 61.511719 72.195312 48.804688 C 72.324219 48.410156 72.441406 47.988281 72.558594 47.566406 " fill-opacity="1" fill-rule="nonzero"/><path fill="#ffffff" d="M 56.328125 36.808594 L 56.328125 50.199219 L 48.570312 50.199219 L 48.570312 37.710938 C 48.570312 34.566406 47.449219 32.425781 44.640625 32.425781 C 42.5 32.425781 41.21875 33.867188 40.652344 35.265625 C 40.449219 35.761719 40.390625 36.460938 40.390625 37.15625 L 40.390625 50.199219 L 32.632812 50.199219 C 32.632812 50.199219 32.734375 29.035156 32.632812 26.851562 L 40.390625 26.851562 L 40.390625 30.15625 C 40.375 30.1875 40.359375 30.214844 40.347656 30.230469 L 40.390625 30.230469 L 40.390625 30.15625 C 41.421875 28.570312 43.257812 26.300781 47.390625 26.300781 C 52.5 26.300781 56.328125 29.632812 56.328125 36.808594 M 24.507812 15.585938 C 21.859375 15.585938 20.113281 17.332031 20.113281 19.617188 C 20.113281 21.859375 21.800781 23.648438 24.40625 23.648438 L 24.464844 23.648438 C 27.171875 23.648438 28.859375 21.859375 28.859375 19.617188 C 28.789062 17.332031 27.15625 15.585938 24.507812 15.585938 M 20.5625 50.199219 L 28.335938 50.199219 L 28.335938 26.851562 L 20.578125 26.851562 L 20.578125 50.199219 Z M 20.5625 50.199219 " fill-opacity="1" fill-rule="nonzero"/></svg>