<svg xmlns="http://www.w3.org/2000/svg" xmlns:xlink="http://www.w3.org/1999/xlink" width="100" zoomAndPan="magnify" viewBox="0 0 75 74.999997" height="100" preserveAspectRatio="xMidYMid meet" version="1.0"><defs><clipPath id="id1"><path d="M 0.859375 0.859375 L 73.609375 0.859375 L 73.609375 73.609375 L 0.859375 73.609375 Z M 0.859375 0.859375 " clip-rule="nonzero"/></clipPath></defs><path fill="#ffffff" d="M 72.742188 37.234375 C 72.742188 56.839844 56.847656 72.746094 37.238281 72.746094 C 17.625 72.746094 1.726562 56.839844 1.726562 37.234375 C 1.726562 17.621094 17.625 1.722656 37.238281 1.722656 C 56.847656 1.722656 72.742188 17.621094 72.742188 37.234375 Z M 72.742188 37.234375 " fill-opacity="1" fill-rule="nonzero"/><path fill="#eaf4f9" d="M 37.238281 1.722656 C 56.847656 1.722656 72.742188 17.621094 72.742188 37.234375 C 72.742188 56.839844 56.847656 72.746094 37.238281 72.746094 " fill-opacity="1" fill-rule="nonzero"/><g clip-path="url(#id1)"><path stroke-linecap="round" transform="matrix(0.569249, 0, 0, 0.569249, -2.613568, -2.613571)" fill="none" stroke-linejoin="round" d="M 132.377551 70.000936 C 132.377551 104.441888 104.455608 132.384417 70.007794 132.384417 C 35.553118 132.384417 7.624313 104.441888 7.624313 70.000936 C 7.624313 35.54626 35.553118 7.617455 70.007794 7.617455 C 104.455608 7.617455 132.377551 35.54626 132.377551 70.000936 Z M 132.377551 70.000936 " stroke="#33363a" stroke-width="3" stroke-opacity="1" stroke-miterlimit="10"/></g><path fill="#3e77bf" d="M 37.234375 9.226562 C 21.761719 9.226562 9.21875 21.816406 9.21875 37.355469 C 9.21875 49.78125 17.246094 60.320312 28.382812 64.039062 C 29.78125 64.300781 30.292969 63.433594 30.292969 62.6875 C 30.292969 62.015625 30.269531 60.25 30.253906 57.902344 C 22.460938 59.605469 20.8125 54.132812 20.8125 54.132812 C 19.542969 50.882812 17.703125 50.019531 17.703125 50.019531 C 15.160156 48.273438 17.898438 48.308594 17.898438 48.308594 C 20.707031 48.507812 22.1875 51.207031 22.1875 51.207031 C 24.6875 55.503906 28.746094 54.261719 30.34375 53.542969 C 30.597656 51.726562 31.320312 50.484375 32.121094 49.785156 C 25.902344 49.070312 19.359375 46.660156 19.359375 35.882812 C 19.359375 32.8125 20.449219 30.300781 22.242188 28.332031 C 21.953125 27.621094 20.992188 24.761719 22.515625 20.890625 C 22.515625 20.890625 24.871094 20.136719 30.222656 23.773438 C 32.457031 23.152344 34.851562 22.839844 37.234375 22.828125 C 39.613281 22.839844 42.011719 23.152344 44.25 23.773438 C 49.597656 20.136719 51.945312 20.890625 51.945312 20.890625 C 53.476562 24.761719 52.511719 27.621094 52.222656 28.332031 C 54.019531 30.300781 55.105469 32.8125 55.105469 35.882812 C 55.105469 46.6875 48.554688 49.066406 42.3125 49.761719 C 43.316406 50.628906 44.214844 52.347656 44.214844 54.972656 C 44.214844 58.730469 44.179688 61.761719 44.179688 62.6875 C 44.179688 63.441406 44.683594 64.316406 46.105469 64.039062 C 57.230469 60.3125 65.246094 49.777344 65.246094 37.355469 C 65.25 21.816406 52.703125 9.226562 37.234375 9.226562 Z M 37.234375 9.226562 " fill-opacity="1" fill-rule="nonzero"/><path fill="#3e77bf" d="M 37.234375 9.226562 C 21.761719 9.226562 9.21875 21.816406 9.21875 37.355469 C 9.21875 49.78125 17.246094 60.320312 28.382812 64.039062 C 29.78125 64.300781 30.292969 63.433594 30.292969 62.6875 C 30.292969 62.015625 30.269531 60.25 30.253906 57.902344 C 22.460938 59.605469 20.8125 54.132812 20.8125 54.132812 C 19.542969 50.882812 17.703125 50.019531 17.703125 50.019531 C 15.160156 48.273438 17.898438 48.308594 17.898438 48.308594 C 20.707031 48.507812 22.1875 51.207031 22.1875 51.207031 C 24.6875 55.503906 28.746094 54.261719 30.34375 53.542969 C 30.597656 51.726562 31.320312 50.484375 32.121094 49.785156 C 25.902344 49.070312 19.359375 46.660156 19.359375 35.882812 C 19.359375 32.8125 20.449219 30.300781 22.242188 28.332031 C 21.953125 27.621094 20.992188 24.761719 22.515625 20.890625 C 22.515625 20.890625 24.871094 20.136719 30.222656 23.773438 C 32.457031 23.152344 34.851562 22.839844 37.234375 22.828125 C 39.613281 22.839844 42.011719 23.152344 44.25 23.773438 C 49.597656 20.136719 51.945312 20.890625 51.945312 20.890625 C 53.476562 24.761719 52.511719 27.621094 52.222656 28.332031 C 54.019531 30.300781 55.105469 32.8125 55.105469 35.882812 C 55.105469 46.6875 48.554688 49.066406 42.3125 49.761719 C 43.316406 50.628906 44.214844 52.347656 44.214844 54.972656 C 44.214844 58.730469 44.179688 61.761719 44.179688 62.6875 C 44.179688 63.441406 44.683594 64.316406 46.105469 64.039062 C 57.230469 60.3125 65.246094 49.777344 65.246094 37.355469 C 65.25 21.816406 52.703125 9.226562 37.234375 9.226562 Z M 37.234375 9.226562 " fill-opacity="1" fill-rule="nonzero"/><path fill="#569fef" d="M 37.234375 9.226562 C 21.761719 9.226562 9.21875 21.816406 9.21875 37.355469 C 9.21875 49.78125 17.246094 60.320312 28.382812 64.039062 C 29.78125 64.300781 30.292969 63.433594 30.292969 62.6875 C 30.292969 62.015625 30.269531 60.25 30.253906 57.902344 C 22.460938 59.605469 20.8125 54.132812 20.8125 54.132812 C 19.542969 50.882812 17.703125 50.019531 17.703125 50.019531 C 15.160156 48.273438 17.898438 48.308594 17.898438 48.308594 C 20.707031 48.507812 22.1875 51.207031 22.1875 51.207031 C 24.6875 55.503906 28.746094 54.261719 30.34375 53.542969 C 30.597656 51.726562 31.320312 50.484375 32.121094 49.785156 C 25.902344 49.070312 19.359375 46.660156 19.359375 35.882812 C 19.359375 32.8125 20.449219 30.300781 22.242188 28.332031 C 21.953125 27.621094 20.992188 24.761719 22.515625 20.890625 C 22.515625 20.890625 24.871094 20.136719 30.222656 23.773438 C 32.457031 23.152344 34.851562 22.839844 37.234375 22.828125 Z M 37.234375 9.226562 " fill-opacity="1" fill-rule="nonzero"/><path fill="#6ca9ea" d="M 23.492188 52.855469 C 23.316406 52.585938 22.976562 52.125 22.484375 51.664062 C 22.804688 52.136719 23.144531 52.53125 23.492188 52.855469 Z M 23.492188 52.855469 " fill-opacity="1" fill-rule="nonzero"/><path fill="#33363a" d="M 37.234375 10.933594 C 51.738281 10.933594 63.542969 22.785156 63.542969 37.355469 C 63.542969 48.628906 56.460938 58.613281 45.890625 62.308594 C 45.890625 62.003906 45.894531 61.609375 45.898438 61.136719 C 45.90625 59.683594 45.921875 57.492188 45.921875 54.972656 C 45.921875 53.523438 45.671875 52.183594 45.210938 51.039062 C 47.476562 50.574219 50.03125 49.699219 52.148438 47.917969 C 55.246094 45.320312 56.8125 41.269531 56.8125 35.882812 C 56.8125 32.878906 55.914062 30.214844 54.140625 27.953125 C 54.539062 26.429688 54.875 23.652344 53.535156 20.265625 C 53.347656 19.789062 52.957031 19.421875 52.46875 19.265625 C 52.300781 19.210938 51.921875 19.117188 51.324219 19.117188 C 49.917969 19.117188 47.519531 19.621094 43.945312 21.929688 C 41.8125 21.402344 39.558594 21.132812 37.226562 21.121094 C 34.910156 21.132812 32.660156 21.402344 30.527344 21.929688 C 26.949219 19.621094 24.550781 19.117188 23.140625 19.117188 C 22.539062 19.117188 22.164062 19.210938 21.992188 19.265625 C 21.507812 19.421875 21.113281 19.789062 20.925781 20.265625 C 19.59375 23.65625 19.929688 26.429688 20.324219 27.957031 C 18.550781 30.21875 17.652344 32.882812 17.652344 35.882812 C 17.652344 39.105469 17.652344 48.472656 29.25 51.039062 C 29.085938 51.433594 28.953125 51.851562 28.84375 52.289062 C 28.359375 52.441406 27.761719 52.574219 27.136719 52.574219 C 25.671875 52.574219 24.535156 51.847656 23.664062 50.355469 C 23.453125 49.980469 21.566406 46.855469 18.015625 46.605469 C 17.980469 46.601562 17.949219 46.601562 17.914062 46.597656 C 17.910156 46.597656 17.890625 46.597656 17.882812 46.597656 C 16.375 46.597656 15.324219 47.195312 15.003906 48.234375 C 14.492188 49.886719 16.179688 51.046875 16.734375 51.425781 C 16.832031 51.492188 16.859375 51.515625 16.957031 51.558594 C 17.132812 51.660156 18.296875 52.414062 19.207031 54.714844 C 19.460938 55.449219 21.253906 59.9375 27.429688 59.9375 C 27.796875 59.9375 28.171875 59.921875 28.558594 59.886719 C 28.5625 60.28125 28.566406 60.644531 28.566406 60.976562 C 28.574219 61.519531 28.578125 61.96875 28.582031 62.304688 C 18.003906 58.613281 10.921875 48.628906 10.921875 37.351562 C 10.925781 22.785156 22.726562 10.933594 37.234375 10.933594 M 37.234375 9.226562 C 21.761719 9.226562 9.21875 21.816406 9.21875 37.355469 C 9.21875 49.78125 17.246094 60.320312 28.382812 64.039062 C 28.554688 64.074219 28.714844 64.089844 28.859375 64.089844 C 29.902344 64.089844 30.292969 63.339844 30.292969 62.6875 C 30.292969 62.015625 30.269531 60.25 30.253906 57.902344 C 29.207031 58.132812 28.269531 58.230469 27.429688 58.230469 C 22.046875 58.230469 20.816406 54.132812 20.816406 54.132812 C 19.542969 50.882812 17.707031 50.019531 17.707031 50.019531 C 15.257812 48.339844 17.695312 48.308594 17.886719 48.308594 L 17.898438 48.308594 C 20.707031 48.507812 22.1875 51.207031 22.1875 51.207031 C 23.585938 53.609375 25.46875 54.28125 27.136719 54.28125 C 28.453125 54.28125 29.636719 53.859375 30.34375 53.542969 C 30.597656 51.726562 31.320312 50.484375 32.121094 49.78125 C 25.902344 49.070312 19.363281 46.660156 19.363281 35.882812 C 19.363281 32.8125 20.453125 30.300781 22.242188 28.332031 C 21.953125 27.621094 20.992188 24.761719 22.519531 20.890625 C 22.519531 20.890625 22.71875 20.828125 23.144531 20.828125 C 24.15625 20.828125 26.441406 21.203125 30.222656 23.773438 C 32.457031 23.152344 34.855469 22.839844 37.238281 22.828125 C 39.617188 22.839844 42.011719 23.152344 44.25 23.773438 C 48.027344 21.203125 50.308594 20.828125 51.324219 20.828125 C 51.746094 20.828125 51.949219 20.890625 51.949219 20.890625 C 53.476562 24.761719 52.511719 27.621094 52.222656 28.332031 C 54.019531 30.300781 55.105469 32.8125 55.105469 35.882812 C 55.105469 46.6875 48.554688 49.066406 42.3125 49.761719 C 43.320312 50.628906 44.214844 52.347656 44.214844 54.972656 C 44.214844 58.730469 44.179688 61.761719 44.179688 62.6875 C 44.179688 63.34375 44.5625 64.089844 45.597656 64.089844 C 45.753906 64.089844 45.921875 64.074219 46.105469 64.039062 C 57.230469 60.3125 65.25 49.777344 65.25 37.355469 C 65.25 21.816406 52.703125 9.226562 37.234375 9.226562 Z M 37.234375 9.226562 " fill-opacity="1" fill-rule="nonzero"/><path fill="#33363a" d="M 37.234375 10.933594 C 51.738281 10.933594 63.542969 22.785156 63.542969 37.355469 C 63.542969 48.628906 56.460938 58.613281 45.890625 62.308594 C 45.890625 62.003906 45.894531 61.609375 45.898438 61.136719 C 45.90625 59.683594 45.921875 57.492188 45.921875 54.972656 C 45.921875 53.523438 45.671875 52.183594 45.210938 51.039062 C 47.476562 50.574219 50.03125 49.699219 52.148438 47.917969 C 55.246094 45.320312 56.8125 41.269531 56.8125 35.882812 C 56.8125 32.878906 55.914062 30.214844 54.140625 27.953125 C 54.539062 26.429688 54.875 23.652344 53.535156 20.265625 C 53.347656 19.789062 52.957031 19.421875 52.46875 19.265625 C 52.300781 19.210938 51.921875 19.117188 51.324219 19.117188 C 49.917969 19.117188 47.519531 19.621094 43.945312 21.929688 C 41.8125 21.402344 39.558594 21.132812 37.226562 21.121094 C 34.910156 21.132812 32.660156 21.402344 30.527344 21.929688 C 26.949219 19.621094 24.550781 19.117188 23.140625 19.117188 C 22.539062 19.117188 22.164062 19.210938 21.992188 19.265625 C 21.507812 19.421875 21.113281 19.789062 20.925781 20.265625 C 19.59375 23.65625 19.929688 26.429688 20.324219 27.957031 C 18.550781 30.21875 17.652344 32.882812 17.652344 35.882812 C 17.652344 39.105469 17.652344 48.472656 29.25 51.039062 C 29.085938 51.433594 28.953125 51.851562 28.84375 52.289062 C 28.359375 52.441406 27.761719 52.574219 27.136719 52.574219 C 25.671875 52.574219 24.535156 51.847656 23.664062 50.355469 C 23.453125 49.980469 21.566406 46.855469 18.015625 46.605469 C 17.980469 46.601562 17.949219 46.601562 17.914062 46.597656 C 17.910156 46.597656 17.890625 46.597656 17.882812 46.597656 C 16.375 46.597656 15.324219 47.195312 15.003906 48.234375 C 14.492188 49.886719 16.179688 51.046875 16.734375 51.425781 C 16.832031 51.492188 16.859375 51.515625 16.957031 51.558594 C 17.132812 51.660156 18.296875 52.414062 19.207031 54.714844 C 19.460938 55.449219 21.253906 59.9375 27.429688 59.9375 C 27.796875 59.9375 28.171875 59.921875 28.558594 59.886719 C 28.5625 60.28125 28.566406 60.644531 28.566406 60.976562 C 28.574219 61.519531 28.578125 61.96875 28.582031 62.304688 C 18.003906 58.613281 10.921875 48.628906 10.921875 37.351562 C 10.925781 22.785156 22.726562 10.933594 37.234375 10.933594 M 37.234375 9.226562 C 21.761719 9.226562 9.21875 21.816406 9.21875 37.355469 C 9.21875 49.78125 17.246094 60.320312 28.382812 64.039062 C 28.554688 64.074219 28.714844 64.089844 28.859375 64.089844 C 29.902344 64.089844 30.292969 63.339844 30.292969 62.6875 C 30.292969 62.015625 30.269531 60.25 30.253906 57.902344 C 29.207031 58.132812 28.269531 58.230469 27.429688 58.230469 C 22.046875 58.230469 20.816406 54.132812 20.816406 54.132812 C 19.542969 50.882812 17.707031 50.019531 17.707031 50.019531 C 15.257812 48.339844 17.695312 48.308594 17.886719 48.308594 L 17.898438 48.308594 C 20.707031 48.507812 22.1875 51.207031 22.1875 51.207031 C 23.585938 53.609375 25.46875 54.28125 27.136719 54.28125 C 28.453125 54.28125 29.636719 53.859375 30.34375 53.542969 C 30.597656 51.726562 31.320312 50.484375 32.121094 49.78125 C 25.902344 49.070312 19.363281 46.660156 19.363281 35.882812 C 19.363281 32.8125 20.453125 30.300781 22.242188 28.332031 C 21.953125 27.621094 20.992188 24.761719 22.519531 20.890625 C 22.519531 20.890625 22.71875 20.828125 23.144531 20.828125 C 24.15625 20.828125 26.441406 21.203125 30.222656 23.773438 C 32.457031 23.152344 34.855469 22.839844 37.238281 22.828125 C 39.617188 22.839844 42.011719 23.152344 44.25 23.773438 C 48.027344 21.203125 50.308594 20.828125 51.324219 20.828125 C 51.746094 20.828125 51.949219 20.890625 51.949219 20.890625 C 53.476562 24.761719 52.511719 27.621094 52.222656 28.332031 C 54.019531 30.300781 55.105469 32.8125 55.105469 35.882812 C 55.105469 46.6875 48.554688 49.066406 42.3125 49.761719 C 43.320312 50.628906 44.214844 52.347656 44.214844 54.972656 C 44.214844 58.730469 44.179688 61.761719 44.179688 62.6875 C 44.179688 63.34375 44.5625 64.089844 45.597656 64.089844 C 45.753906 64.089844 45.921875 64.074219 46.105469 64.039062 C 57.230469 60.3125 65.25 49.777344 65.25 37.355469 C 65.25 21.816406 52.703125 9.226562 37.234375 9.226562 Z M 37.234375 9.226562 " fill-opacity="1" fill-rule="nonzero"/><path fill="#33363a" d="M 22.484375 51.664062 C 22.804688 52.136719 23.144531 52.53125 23.492188 52.855469 C 23.316406 52.585938 22.976562 52.125 22.484375 51.664062 Z M 22.484375 51.664062 " fill-opacity="1" fill-rule="nonzero"/></svg>