<svg xmlns="http://www.w3.org/2000/svg" xmlns:xlink="http://www.w3.org/1999/xlink" width="400" zoomAndPan="magnify" viewBox="0 0 300 299.999988" height="400" preserveAspectRatio="xMidYMid meet" version="1.0"><defs><clipPath id="id1"><path d="M 86.152344 97.539062 L 206.152344 97.539062 L 206.152344 173 L 86.152344 173 Z M 86.152344 97.539062 " clip-rule="nonzero"/></clipPath><clipPath id="id2"><path d="M 118 183 L 174 183 L 174 189.789062 L 118 189.789062 Z M 118 183 " clip-rule="nonzero"/></clipPath></defs><path fill="#393536" d="M 160.253906 167.082031 L 132.015625 167.082031 L 132.015625 186.589844 L 160.253906 186.589844 L 160.253906 167.082031 " fill-opacity="1" fill-rule="nonzero"/><g clip-path="url(#id1)"><path fill="#393536" d="M 203.191406 165.085938 C 203.191406 165.734375 202.664062 166.265625 202.015625 166.265625 L 90.253906 166.265625 C 89.605469 166.265625 89.078125 165.734375 89.078125 165.085938 L 89.078125 101.601562 C 89.078125 100.949219 89.605469 100.421875 90.253906 100.421875 L 202.015625 100.421875 C 202.664062 100.421875 203.191406 100.949219 203.191406 101.601562 Z M 202.015625 97.546875 L 90.253906 97.546875 C 88.019531 97.546875 86.210938 99.359375 86.210938 101.601562 L 86.210938 168.460938 C 86.210938 170.699219 88.019531 172.515625 90.253906 172.515625 L 202.015625 172.515625 C 204.25 172.515625 206.058594 170.699219 206.058594 168.460938 L 206.058594 101.601562 C 206.058594 99.359375 204.25 97.546875 202.015625 97.546875 " fill-opacity="1" fill-rule="nonzero"/></g><g clip-path="url(#id2)"><path fill="#393536" d="M 173.402344 189.78125 L 173.402344 185.332031 C 173.402344 184.316406 172.578125 183.488281 171.5625 183.488281 L 120.707031 183.488281 C 119.691406 183.488281 118.867188 184.316406 118.867188 185.332031 L 118.867188 189.78125 L 173.402344 189.78125 " fill-opacity="1" fill-rule="nonzero"/></g><path fill="#393536" d="M 104.058594 149.75 C 103.835938 149.96875 103.152344 149.808594 102.863281 149.773438 C 102.453125 149.722656 102.042969 149.636719 101.648438 149.507812 C 100.980469 149.289062 100.363281 148.925781 99.875 148.414062 C 98.671875 147.140625 98.539062 145.363281 98.507812 143.695312 C 98.464844 141.617188 98.660156 139.484375 98.3125 137.429688 C 98.078125 136.058594 97.585938 134.664062 96.570312 133.679688 C 96.464844 133.578125 96.351562 133.480469 96.238281 133.386719 C 96.148438 133.320312 96.179688 133.226562 96.179688 133.117188 C 96.179688 132.902344 96.574219 132.667969 96.722656 132.507812 C 97.171875 132.019531 97.515625 131.441406 97.769531 130.832031 C 98.671875 128.644531 98.503906 126.210938 98.503906 123.890625 C 98.503906 122.445312 98.445312 120.933594 98.839844 119.527344 C 99.242188 118.078125 100.328125 117.023438 101.769531 116.617188 C 102.144531 116.511719 102.527344 116.441406 102.914062 116.402344 C 103.222656 116.371094 103.921875 116.214844 104.171875 116.4375 C 104.390625 116.628906 104.265625 117.320312 104.265625 117.558594 C 104.265625 117.960938 104.265625 118.359375 104.265625 118.761719 C 104.265625 119.1875 103.871094 119.128906 103.558594 119.148438 C 103.152344 119.171875 102.738281 119.238281 102.363281 119.402344 C 101.261719 119.882812 101.042969 121.144531 100.972656 122.226562 C 100.878906 123.621094 101.058594 125.019531 101.128906 126.414062 C 101.25 128.78125 101.078125 131.585938 99.167969 133.261719 C 100.507812 134.488281 100.976562 136.398438 101.085938 138.148438 C 101.191406 139.769531 100.949219 141.371094 100.949219 142.984375 C 100.949219 143.898438 100.984375 144.828125 101.320312 145.691406 C 101.640625 146.511719 102.425781 146.851562 103.25 146.9375 C 103.535156 146.964844 104.148438 146.832031 104.246094 147.203125 C 104.285156 147.34375 104.265625 147.519531 104.265625 147.667969 C 104.265625 148.167969 104.265625 148.667969 104.265625 149.171875 C 104.265625 149.476562 104.261719 149.511719 104.058594 149.75 " fill-opacity="1" fill-rule="nonzero"/><path fill="#393536" d="M 186.71875 116.429688 C 186.941406 116.214844 187.628906 116.375 187.914062 116.410156 C 188.328125 116.460938 188.738281 116.542969 189.132812 116.675781 C 189.800781 116.898438 190.417969 117.257812 190.90625 117.769531 C 192.109375 119.042969 192.242188 120.820312 192.273438 122.488281 C 192.3125 124.566406 192.121094 126.699219 192.46875 128.753906 C 192.703125 130.125 193.195312 131.519531 194.210938 132.503906 C 194.316406 132.605469 194.429688 132.703125 194.542969 132.792969 C 194.632812 132.867188 194.601562 132.957031 194.601562 133.066406 C 194.601562 133.28125 194.207031 133.511719 194.054688 133.675781 C 193.605469 134.164062 193.265625 134.742188 193.011719 135.351562 C 192.109375 137.535156 192.28125 139.972656 192.28125 142.292969 C 192.28125 143.738281 192.335938 145.246094 191.941406 146.652344 C 191.535156 148.105469 190.453125 149.160156 189.011719 149.566406 C 188.636719 149.671875 188.25 149.742188 187.867188 149.78125 C 187.558594 149.8125 186.859375 149.96875 186.609375 149.742188 C 186.394531 149.554688 186.515625 148.863281 186.515625 148.625 C 186.515625 148.222656 186.515625 147.820312 186.515625 147.421875 C 186.515625 146.992188 186.910156 147.054688 187.222656 147.035156 C 187.628906 147.011719 188.042969 146.941406 188.417969 146.78125 C 189.519531 146.300781 189.738281 145.039062 189.808594 143.957031 C 189.898438 142.558594 189.722656 141.160156 189.648438 139.769531 C 189.53125 137.40625 189.703125 134.597656 191.613281 132.921875 C 190.273438 131.695312 189.804688 129.785156 189.691406 128.035156 C 189.589844 126.414062 189.832031 124.8125 189.832031 123.199219 C 189.832031 122.28125 189.796875 121.351562 189.460938 120.492188 C 189.140625 119.671875 188.359375 119.332031 187.53125 119.246094 C 187.246094 119.21875 186.632812 119.347656 186.535156 118.980469 C 186.496094 118.835938 186.515625 118.664062 186.515625 118.515625 C 186.515625 118.015625 186.515625 117.511719 186.515625 117.011719 C 186.515625 116.707031 186.519531 116.671875 186.71875 116.429688 " fill-opacity="1" fill-rule="nonzero"/><path fill="#393536" d="M 117.886719 107.03125 L 106.121094 107.03125 L 106.121094 110.089844 L 117.886719 110.089844 L 117.886719 107.03125 " fill-opacity="1" fill-rule="nonzero"/><path fill="#393536" d="M 118.953125 107.03125 L 118.953125 110.089844 L 128.207031 110.089844 L 128.207031 107.03125 L 118.953125 107.03125 " fill-opacity="1" fill-rule="nonzero"/><path fill="#393536" d="M 129.628906 107.03125 L 129.628906 110.089844 L 150.441406 110.089844 L 150.441406 107.03125 L 129.628906 107.03125 " fill-opacity="1" fill-rule="nonzero"/><path fill="#393536" d="M 114.058594 105.863281 L 106.121094 105.863281 L 106.121094 102.804688 L 114.058594 102.804688 L 114.058594 105.863281 " fill-opacity="1" fill-rule="nonzero"/><path fill="#393536" d="M 124.171875 111.875 L 119.019531 111.875 L 119.019531 114.933594 L 124.171875 114.933594 L 124.171875 111.875 " fill-opacity="1" fill-rule="nonzero"/><path fill="#393536" d="M 172.414062 111.875 L 125.835938 111.875 L 125.835938 114.933594 L 172.414062 114.933594 L 172.414062 111.875 " fill-opacity="1" fill-rule="nonzero"/><path fill="#393536" d="M 174.195312 111.875 L 174.195312 114.933594 L 186.148438 114.933594 L 186.148438 111.875 L 174.195312 111.875 " fill-opacity="1" fill-rule="nonzero"/><path fill="#393536" d="M 167.195312 116.71875 L 129.648438 116.71875 L 129.648438 119.777344 L 167.195312 119.777344 L 167.195312 116.71875 " fill-opacity="1" fill-rule="nonzero"/><path fill="#393536" d="M 179.53125 116.71875 L 168.621094 116.71875 L 168.621094 119.777344 L 179.53125 119.777344 L 179.53125 116.71875 " fill-opacity="1" fill-rule="nonzero"/><path fill="#393536" d="M 121.800781 121.5625 L 119.019531 121.5625 L 119.019531 124.625 L 121.800781 124.625 L 121.800781 121.5625 " fill-opacity="1" fill-rule="nonzero"/><path fill="#393536" d="M 123.9375 121.5625 L 123.9375 124.625 L 182.378906 124.625 L 182.378906 121.5625 L 123.9375 121.5625 " fill-opacity="1" fill-rule="nonzero"/><path fill="#393536" d="M 183.921875 121.5625 L 183.921875 124.625 L 186.148438 124.625 L 186.148438 121.5625 L 183.921875 121.5625 " fill-opacity="1" fill-rule="nonzero"/><path fill="#393536" d="M 112.789062 126.410156 L 106.121094 126.410156 L 106.121094 129.464844 L 112.789062 129.464844 L 112.789062 126.410156 " fill-opacity="1" fill-rule="nonzero"/><path fill="#393536" d="M 122.515625 126.410156 L 114.449219 126.410156 L 114.449219 129.464844 L 122.515625 129.464844 L 122.515625 126.410156 " fill-opacity="1" fill-rule="nonzero"/><path fill="#393536" d="M 124.886719 126.410156 L 124.886719 129.464844 L 128.28125 129.464844 L 128.28125 126.410156 L 124.886719 126.410156 " fill-opacity="1" fill-rule="nonzero"/><path fill="#393536" d="M 157.941406 131.25 L 133.542969 131.25 L 133.542969 134.292969 L 131.410156 134.292969 L 131.410156 131.25 L 119.019531 131.25 L 119.019531 134.3125 L 157.941406 134.3125 L 157.941406 131.25 " fill-opacity="1" fill-rule="nonzero"/><path fill="#393536" d="M 158.417969 131.25 L 158.417969 134.3125 L 162.5 134.3125 L 162.5 131.25 L 158.417969 131.25 " fill-opacity="1" fill-rule="nonzero"/><path fill="#393536" d="M 127.375 136.097656 L 125.28125 136.097656 L 125.28125 139.15625 L 127.375 139.15625 L 127.375 136.097656 " fill-opacity="1" fill-rule="nonzero"/><path fill="#393536" d="M 137.105469 136.097656 L 128.917969 136.097656 L 128.917969 139.15625 L 137.105469 139.15625 L 137.105469 136.097656 " fill-opacity="1" fill-rule="nonzero"/><path fill="#393536" d="M 172.769531 136.097656 L 138.289062 136.097656 L 138.289062 139.15625 L 172.769531 139.15625 L 172.769531 136.097656 " fill-opacity="1" fill-rule="nonzero"/><path fill="#393536" d="M 174.671875 136.097656 L 174.671875 139.15625 L 182.847656 139.15625 L 182.847656 136.097656 L 174.671875 136.097656 " fill-opacity="1" fill-rule="nonzero"/><path fill="#393536" d="M 134.019531 140.941406 L 125.28125 140.941406 L 125.28125 144 L 134.019531 144 L 134.019531 140.941406 " fill-opacity="1" fill-rule="nonzero"/><path fill="#393536" d="M 165.652344 140.941406 L 135.5625 140.941406 L 135.5625 144 L 165.652344 144 L 165.652344 140.941406 " fill-opacity="1" fill-rule="nonzero"/><path fill="#393536" d="M 169.210938 140.941406 L 169.210938 144 L 186.148438 144 L 186.148438 140.941406 L 169.210938 140.941406 " fill-opacity="1" fill-rule="nonzero"/><path fill="#393536" d="M 171.703125 145.785156 L 140.898438 145.785156 L 140.898438 148.84375 L 171.703125 148.84375 L 171.703125 145.785156 " fill-opacity="1" fill-rule="nonzero"/><path fill="#393536" d="M 138.644531 145.785156 L 125.28125 145.785156 L 125.28125 148.84375 L 138.644531 148.84375 L 138.644531 145.785156 " fill-opacity="1" fill-rule="nonzero"/><path fill="#393536" d="M 155.40625 153.6875 L 119.019531 153.6875 L 119.019531 150.628906 L 155.40625 150.628906 L 155.40625 153.6875 " fill-opacity="1" fill-rule="nonzero"/><path fill="#393536" d="M 110.535156 155.476562 L 106.121094 155.476562 L 106.121094 158.535156 L 110.535156 158.535156 L 110.535156 155.476562 " fill-opacity="1" fill-rule="nonzero"/><path fill="#393536" d="M 112.191406 155.476562 L 112.191406 158.535156 L 167.132812 158.535156 L 167.132812 155.476562 L 112.191406 155.476562 " fill-opacity="1" fill-rule="nonzero"/><path fill="#393536" d="M 114.058594 163.378906 L 106.121094 163.378906 L 106.121094 160.316406 L 114.058594 160.316406 L 114.058594 163.378906 " fill-opacity="1" fill-rule="nonzero"/></svg>