<svg xmlns="http://www.w3.org/2000/svg" xmlns:xlink="http://www.w3.org/1999/xlink" width="400" zoomAndPan="magnify" viewBox="0 0 300 299.999988" height="400" preserveAspectRatio="xMidYMid meet" version="1.0"><defs><clipPath id="id1"><path d="M 90 84.566406 L 210 84.566406 L 210 202.316406 L 90 202.316406 Z M 90 84.566406 " clip-rule="nonzero"/></clipPath></defs><g clip-path="url(#id1)"><path fill="#000000" d="M 197.03125 84.566406 L 102.96875 84.566406 C 95.851562 84.566406 90.042969 90.359375 90.042969 97.460938 L 90.042969 107.179688 C 90.042969 114.28125 95.851562 120.078125 102.96875 120.078125 L 148.125 120.078125 L 148.125 125.683594 L 102.96875 125.683594 C 95.851562 125.683594 90.042969 131.476562 90.042969 138.582031 L 90.042969 148.300781 C 90.042969 155.402344 95.851562 161.195312 102.96875 161.195312 L 148.125 161.195312 L 148.125 166.804688 L 102.96875 166.804688 C 95.851562 166.804688 90.042969 172.597656 90.042969 179.699219 L 90.042969 189.417969 C 90.042969 196.519531 95.851562 202.316406 102.96875 202.316406 L 197.03125 202.316406 C 204.148438 202.316406 209.957031 196.519531 209.957031 189.417969 L 209.957031 179.699219 C 209.957031 172.597656 204.148438 166.804688 197.03125 166.804688 L 151.875 166.804688 L 151.875 161.195312 L 197.03125 161.195312 C 204.148438 161.195312 209.957031 155.402344 209.957031 148.300781 L 209.957031 138.582031 C 209.957031 131.476562 204.148438 125.683594 197.03125 125.683594 L 151.875 125.683594 L 151.875 120.078125 L 197.03125 120.078125 C 204.148438 120.078125 209.957031 114.28125 209.957031 107.179688 L 209.957031 97.460938 C 209.957031 90.359375 204.148438 84.566406 197.03125 84.566406 Z M 206.210938 179.699219 L 206.210938 189.417969 C 206.210938 194.464844 202.089844 198.578125 197.03125 198.578125 L 102.96875 198.578125 C 97.910156 198.578125 93.789062 194.464844 93.789062 189.417969 L 93.789062 179.699219 C 93.789062 174.652344 97.910156 170.539062 102.96875 170.539062 L 197.03125 170.539062 C 202.089844 170.539062 206.210938 174.652344 206.210938 179.699219 Z M 206.210938 138.582031 L 206.210938 148.300781 C 206.210938 153.34375 202.089844 157.457031 197.03125 157.457031 L 102.96875 157.457031 C 97.910156 157.457031 93.789062 153.34375 93.789062 148.300781 L 93.789062 138.582031 C 93.789062 133.535156 97.910156 129.421875 102.96875 129.421875 L 197.03125 129.421875 C 202.089844 129.421875 206.210938 133.535156 206.210938 138.582031 Z M 206.210938 107.179688 C 206.210938 112.226562 202.089844 116.339844 197.03125 116.339844 L 102.96875 116.339844 C 97.910156 116.339844 93.789062 112.226562 93.789062 107.179688 L 93.789062 97.460938 C 93.789062 92.414062 97.910156 88.304688 102.96875 88.304688 L 197.03125 88.304688 C 202.089844 88.304688 206.210938 92.414062 206.210938 97.460938 Z M 206.210938 107.179688 " fill-opacity="1" fill-rule="nonzero"/></g><path fill="#000000" d="M 138.757812 95.777344 L 106.90625 95.777344 C 103.71875 95.777344 101.285156 98.207031 101.285156 101.386719 L 101.285156 103.253906 C 101.285156 106.246094 103.71875 108.863281 106.90625 108.863281 L 138.757812 108.863281 C 141.753906 108.863281 144.378906 106.433594 144.378906 103.253906 L 144.378906 101.386719 C 144.378906 98.207031 141.941406 95.777344 138.757812 95.777344 Z M 140.632812 103.253906 C 140.632812 104.191406 139.882812 105.125 138.757812 105.125 L 106.90625 105.125 C 105.96875 105.125 105.03125 104.375 105.03125 103.253906 L 105.03125 101.386719 C 105.03125 100.453125 105.78125 99.515625 106.90625 99.515625 L 138.757812 99.515625 C 139.695312 99.515625 140.632812 100.265625 140.632812 101.386719 Z M 140.632812 103.253906 " fill-opacity="1" fill-rule="nonzero"/><path fill="#000000" d="M 190.472656 95.777344 C 186.910156 95.777344 183.914062 98.769531 183.914062 102.320312 C 183.914062 105.871094 186.910156 108.863281 190.472656 108.863281 C 194.03125 108.863281 197.03125 105.871094 197.03125 102.320312 C 197.03125 98.769531 194.03125 95.777344 190.472656 95.777344 Z M 190.472656 105.125 C 188.972656 105.125 187.660156 103.816406 187.660156 102.320312 C 187.660156 100.824219 188.972656 99.515625 190.472656 99.515625 C 191.972656 99.515625 193.28125 100.824219 193.28125 102.320312 C 193.28125 103.816406 191.972656 105.125 190.472656 105.125 Z M 190.472656 105.125 " fill-opacity="1" fill-rule="nonzero"/><path fill="#000000" d="M 162.367188 97.460938 C 159.742188 97.460938 157.496094 99.515625 157.496094 102.320312 C 157.496094 105.125 159.554688 107.179688 162.367188 107.179688 C 164.988281 107.179688 167.238281 105.125 167.238281 102.320312 C 167.238281 99.515625 164.988281 97.460938 162.367188 97.460938 Z M 162.367188 103.253906 C 161.804688 103.253906 161.242188 102.882812 161.242188 102.320312 C 161.242188 101.761719 161.617188 101.199219 162.367188 101.199219 C 162.929688 101.199219 163.492188 101.574219 163.492188 102.320312 C 163.492188 103.066406 162.929688 103.253906 162.367188 103.253906 Z M 162.367188 103.253906 " fill-opacity="1" fill-rule="nonzero"/><path fill="#000000" d="M 175.480469 97.460938 C 172.859375 97.460938 170.609375 99.515625 170.609375 102.320312 C 170.609375 105.125 172.671875 107.179688 175.480469 107.179688 C 178.105469 107.179688 180.355469 105.125 180.355469 102.320312 C 180.355469 99.515625 178.105469 97.460938 175.480469 97.460938 Z M 175.480469 103.253906 C 174.921875 103.253906 174.359375 102.882812 174.359375 102.132812 C 174.359375 101.386719 174.734375 101.011719 175.480469 101.011719 C 176.042969 101.011719 176.605469 101.386719 176.605469 102.132812 C 176.605469 102.882812 176.042969 103.253906 175.480469 103.253906 Z M 175.480469 103.253906 " fill-opacity="1" fill-rule="nonzero"/><path fill="#000000" d="M 138.757812 136.898438 L 106.90625 136.898438 C 103.90625 136.898438 101.285156 139.328125 101.285156 142.503906 L 101.285156 144.375 C 101.285156 147.363281 103.71875 149.980469 106.90625 149.980469 L 138.757812 149.980469 C 141.753906 149.980469 144.378906 147.550781 144.378906 144.375 L 144.378906 142.503906 C 144.378906 139.328125 141.941406 136.898438 138.757812 136.898438 Z M 140.632812 144.375 C 140.632812 145.308594 139.882812 146.242188 138.757812 146.242188 L 106.90625 146.242188 C 105.96875 146.242188 105.03125 145.496094 105.03125 144.375 L 105.03125 142.503906 C 105.03125 141.570312 105.78125 140.636719 106.90625 140.636719 L 138.757812 140.636719 C 139.695312 140.636719 140.632812 141.382812 140.632812 142.503906 Z M 140.632812 144.375 " fill-opacity="1" fill-rule="nonzero"/><path fill="#000000" d="M 190.472656 149.792969 C 194.03125 149.792969 197.03125 146.804688 197.03125 143.253906 C 197.03125 139.703125 194.03125 136.710938 190.472656 136.710938 C 186.910156 136.710938 183.914062 139.703125 183.914062 143.253906 C 183.914062 146.804688 186.910156 149.792969 190.472656 149.792969 Z M 190.472656 140.449219 C 191.972656 140.449219 193.28125 141.757812 193.28125 143.253906 C 193.28125 144.746094 191.972656 146.054688 190.472656 146.054688 C 188.972656 146.054688 187.660156 144.746094 187.660156 143.253906 C 187.660156 141.757812 188.972656 140.449219 190.472656 140.449219 Z M 190.472656 140.449219 " fill-opacity="1" fill-rule="nonzero"/><path fill="#000000" d="M 162.367188 148.113281 C 164.988281 148.113281 167.238281 146.054688 167.238281 143.253906 C 167.238281 140.636719 165.175781 138.394531 162.367188 138.394531 C 159.742188 138.394531 157.496094 140.449219 157.496094 143.253906 C 157.496094 146.054688 159.742188 148.113281 162.367188 148.113281 Z M 162.367188 142.316406 C 162.929688 142.316406 163.492188 142.691406 163.492188 143.441406 C 163.492188 144 163.117188 144.5625 162.367188 144.5625 C 161.804688 144.5625 161.242188 144.1875 161.242188 143.441406 C 161.242188 142.691406 161.804688 142.316406 162.367188 142.316406 Z M 162.367188 142.316406 " fill-opacity="1" fill-rule="nonzero"/><path fill="#000000" d="M 175.480469 148.113281 C 178.105469 148.113281 180.355469 146.054688 180.355469 143.253906 C 180.355469 140.636719 178.292969 138.394531 175.480469 138.394531 C 172.859375 138.394531 170.609375 140.449219 170.609375 143.253906 C 170.796875 146.054688 172.859375 148.113281 175.480469 148.113281 Z M 175.480469 142.316406 C 176.042969 142.316406 176.605469 142.691406 176.605469 143.441406 C 176.605469 144 176.230469 144.5625 175.480469 144.5625 C 174.921875 144.5625 174.359375 144.1875 174.359375 143.441406 C 174.546875 142.691406 174.921875 142.316406 175.480469 142.316406 Z M 175.480469 142.316406 " fill-opacity="1" fill-rule="nonzero"/><path fill="#000000" d="M 138.757812 178.015625 L 106.90625 178.015625 C 103.90625 178.015625 101.285156 180.445312 101.285156 183.625 L 101.285156 185.492188 C 101.285156 188.484375 103.71875 191.101562 106.90625 191.101562 L 138.757812 191.101562 C 141.753906 191.101562 144.378906 188.671875 144.378906 185.492188 L 144.378906 183.625 C 144.378906 180.445312 141.941406 178.015625 138.757812 178.015625 Z M 140.632812 185.492188 C 140.632812 186.429688 139.882812 187.363281 138.757812 187.363281 L 106.90625 187.363281 C 105.96875 187.363281 105.03125 186.613281 105.03125 185.492188 L 105.03125 183.625 C 105.03125 182.691406 105.78125 181.753906 106.90625 181.753906 L 138.757812 181.753906 C 139.695312 181.753906 140.632812 182.503906 140.632812 183.625 Z M 140.632812 185.492188 " fill-opacity="1" fill-rule="nonzero"/><path fill="#000000" d="M 190.472656 191.101562 C 194.03125 191.101562 197.03125 188.109375 197.03125 184.558594 C 197.03125 181.007812 194.03125 178.015625 190.472656 178.015625 C 186.910156 178.015625 183.914062 181.007812 183.914062 184.558594 C 183.914062 188.109375 186.910156 191.101562 190.472656 191.101562 Z M 190.472656 181.753906 C 191.972656 181.753906 193.28125 183.0625 193.28125 184.558594 C 193.28125 186.054688 191.972656 187.363281 190.472656 187.363281 C 188.972656 187.363281 187.660156 186.054688 187.660156 184.558594 C 187.660156 183.0625 188.972656 181.753906 190.472656 181.753906 Z M 190.472656 181.753906 " fill-opacity="1" fill-rule="nonzero"/><path fill="#000000" d="M 162.367188 189.417969 C 164.988281 189.417969 167.238281 187.363281 167.238281 184.558594 C 167.238281 181.753906 164.988281 179.886719 162.367188 179.886719 C 159.742188 179.886719 157.496094 181.941406 157.496094 184.746094 C 157.496094 187.550781 159.742188 189.417969 162.367188 189.417969 Z M 162.367188 183.625 C 162.929688 183.625 163.492188 183.996094 163.492188 184.746094 C 163.492188 185.492188 163.117188 185.867188 162.367188 185.867188 C 161.804688 185.867188 161.242188 185.492188 161.242188 184.746094 C 161.242188 183.996094 161.804688 183.625 162.367188 183.625 Z M 162.367188 183.625 " fill-opacity="1" fill-rule="nonzero"/><path fill="#000000" d="M 175.480469 189.417969 C 178.105469 189.417969 180.355469 187.363281 180.355469 184.558594 C 180.355469 181.753906 178.105469 179.886719 175.480469 179.886719 C 172.859375 179.886719 170.609375 181.941406 170.609375 184.746094 C 170.609375 187.550781 172.859375 189.417969 175.480469 189.417969 Z M 175.480469 183.625 C 176.042969 183.625 176.605469 183.996094 176.605469 184.746094 C 176.605469 185.492188 176.230469 185.867188 175.480469 185.867188 C 174.921875 185.867188 174.359375 185.492188 174.359375 184.746094 C 174.359375 183.996094 174.921875 183.625 175.480469 183.625 Z M 175.480469 183.625 " fill-opacity="1" fill-rule="nonzero"/></svg>