<svg xmlns="http://www.w3.org/2000/svg" xmlns:xlink="http://www.w3.org/1999/xlink" width="400" zoomAndPan="magnify" viewBox="0 0 300 299.999988" height="400" preserveAspectRatio="xMidYMid meet" version="1.0"><defs><clipPath id="id1"><path d="M 90 105.675781 L 210 105.675781 L 210 194.175781 L 90 194.175781 Z M 90 105.675781 " clip-rule="nonzero"/></clipPath></defs><g clip-path="url(#id1)"><path fill="#000000" d="M 118.335938 157.734375 L 124.742188 157.734375 C 125.71875 157.734375 126.535156 158.78125 126.535156 160.015625 C 126.535156 161.449219 127.703125 162.617188 129.144531 162.617188 C 130.582031 162.617188 131.75 161.449219 131.75 160.015625 C 131.75 155.886719 128.605469 152.527344 124.742188 152.527344 L 118.335938 152.527344 C 114.230469 152.527344 110.894531 156.097656 110.894531 160.492188 C 110.894531 164.25 113.390625 167.53125 116.890625 168.308594 L 124.691406 169.828125 C 125.742188 170.054688 126.535156 171.226562 126.535156 172.542969 L 126.535156 175.796875 C 126.535156 177.292969 125.515625 178.558594 124.308594 178.558594 L 117.902344 178.558594 C 116.925781 178.558594 116.109375 177.511719 116.109375 176.277344 C 116.109375 174.839844 114.941406 173.675781 113.5 173.675781 C 112.0625 173.675781 110.894531 174.839844 110.894531 176.277344 C 110.894531 180.40625 114.039062 183.761719 117.902344 183.761719 L 124.308594 183.761719 C 128.414062 183.761719 131.75 180.1875 131.75 175.796875 L 131.75 172.542969 C 131.75 168.785156 129.253906 165.507812 125.753906 164.730469 L 117.953125 163.210938 C 116.902344 162.980469 116.109375 161.808594 116.109375 160.492188 C 116.109375 159 117.128906 157.734375 118.335938 157.734375 Z M 196.925781 142.117188 L 187.574219 142.117188 L 162.914062 117.496094 C 162.300781 110.886719 156.773438 105.675781 150 105.675781 C 143.226562 105.675781 137.703125 110.886719 137.085938 117.492188 L 112.421875 142.117188 L 103.074219 142.117188 C 95.886719 142.117188 90.039062 147.957031 90.039062 155.128906 L 90.039062 181.160156 C 90.039062 188.332031 95.886719 194.175781 103.074219 194.175781 L 196.925781 194.175781 C 204.113281 194.175781 209.960938 188.332031 209.960938 181.160156 L 209.960938 155.128906 C 209.960938 147.957031 204.113281 142.117188 196.925781 142.117188 Z M 150 110.882812 C 154.3125 110.882812 157.820312 114.382812 157.820312 118.691406 C 157.820312 118.695312 157.820312 118.695312 157.820312 118.699219 C 157.816406 123 154.3125 126.5 150 126.5 C 145.6875 126.5 142.179688 122.996094 142.179688 118.691406 C 142.179688 114.382812 145.6875 110.882812 150 110.882812 Z M 138.058594 123.878906 C 140.070312 128.476562 144.664062 131.703125 150 131.703125 C 155.335938 131.703125 159.921875 128.476562 161.933594 123.878906 L 180.199219 142.117188 L 119.792969 142.117188 Z M 204.75 181.160156 C 204.75 185.464844 201.238281 188.96875 196.925781 188.96875 L 103.074219 188.96875 C 98.761719 188.96875 95.25 185.464844 95.25 181.160156 L 95.25 155.128906 C 95.25 150.824219 98.761719 147.320312 103.074219 147.320312 L 196.925781 147.320312 C 201.238281 147.320312 204.75 150.824219 204.75 155.128906 Z M 178.488281 154.167969 C 177.691406 152.191406 174.4375 152.191406 173.644531 154.167969 L 163.21875 180.195312 C 162.6875 181.53125 163.335938 183.042969 164.671875 183.582031 C 165.996094 184.105469 167.523438 183.464844 168.0625 182.128906 L 169.492188 178.558594 L 182.644531 178.558594 L 184.074219 182.128906 C 184.488281 183.144531 185.464844 183.761719 186.5 183.761719 C 186.824219 183.761719 187.152344 183.707031 187.464844 183.582031 C 188.804688 183.042969 189.457031 181.53125 188.917969 180.195312 Z M 171.582031 173.351562 L 176.070312 162.144531 L 180.558594 173.351562 Z M 154.171875 152.527344 L 144.785156 152.527344 C 143.347656 152.527344 142.179688 153.695312 142.179688 155.128906 L 142.179688 181.160156 C 142.179688 182.597656 143.347656 183.761719 144.785156 183.761719 C 146.226562 183.761719 147.394531 182.597656 147.394531 181.160156 L 147.394531 170.75 L 154.171875 170.75 C 159.058594 170.75 163.035156 166.660156 163.035156 161.636719 C 163.035156 156.613281 159.0625 152.527344 154.171875 152.527344 Z M 154.171875 165.542969 L 147.394531 165.542969 L 147.394531 157.734375 L 154.171875 157.734375 C 156.183594 157.734375 157.820312 159.484375 157.820312 161.636719 C 157.820312 163.792969 156.183594 165.542969 154.171875 165.542969 Z M 154.171875 165.542969 " fill-opacity="1" fill-rule="nonzero"/></g></svg>