<svg xmlns="http://www.w3.org/2000/svg" xmlns:xlink="http://www.w3.org/1999/xlink" width="100" zoomAndPan="magnify" viewBox="0 0 75 74.999997" height="100" preserveAspectRatio="xMidYMid meet" version="1.0"><defs><clipPath id="id1"><path d="M 4.140625 8.699219 L 70.890625 8.699219 L 70.890625 66.449219 L 4.140625 66.449219 Z M 4.140625 8.699219 " clip-rule="nonzero"/></clipPath></defs><rect x="-7.5" width="90" fill="#ffffff" y="-7.5" height="89.999996" fill-opacity="1"/><rect x="-7.5" width="90" fill="#ffffff" y="-7.5" height="89.999996" fill-opacity="1"/><rect x="-7.5" width="90" fill="#ffffff" y="-7.5" height="89.999996" fill-opacity="1"/><rect x="-7.5" width="90" fill="#ffffff" y="-7.5" height="89.999996" fill-opacity="1"/><g clip-path="url(#id1)"><path fill="#000000" d="M 6.859375 8.933594 C 5.90625 9.285156 5.1875 9.90625 4.652344 10.894531 L 4.152344 11.800781 L 4.152344 63.246094 L 4.652344 64.152344 C 5.1875 65.140625 5.90625 65.761719 6.859375 66.113281 C 7.78125 66.429688 67.230469 66.445312 68.132812 66.113281 C 69.070312 65.777344 69.855469 65.089844 70.390625 64.132812 L 70.875 63.246094 L 70.875 11.796875 L 70.375 10.894531 C 69.839844 9.9375 69.21875 9.367188 68.234375 8.949219 C 67.699219 8.730469 64.1875 8.699219 37.5625 8.699219 C 12.882812 8.714844 7.378906 8.75 6.859375 8.933594 Z M 11.84375 13.992188 C 12.546875 14.328125 13 15.21875 12.863281 15.972656 C 12.578125 17.445312 10.507812 17.964844 9.601562 16.808594 C 9.132812 16.207031 9.132812 15.101562 9.601562 14.496094 C 10.222656 13.710938 10.941406 13.558594 11.84375 13.992188 Z M 17.699219 13.992188 C 18.816406 14.511719 19.101562 16.054688 18.214844 16.894531 C 16.996094 18.050781 15.105469 17.328125 15.105469 15.703125 C 15.105469 14.867188 15.324219 14.460938 15.992188 14.0625 C 16.644531 13.660156 16.980469 13.640625 17.699219 13.992188 Z M 23.550781 13.960938 C 24.621094 14.414062 24.972656 15.820312 24.203125 16.726562 C 23.066406 18.082031 20.957031 17.394531 20.957031 15.6875 C 20.957031 14.867188 21.175781 14.464844 21.84375 14.0625 C 22.480469 13.660156 22.796875 13.640625 23.550781 13.960938 Z M 68.285156 40.222656 L 68.285156 58 L 67.800781 58.488281 L 67.316406 58.972656 L 7.714844 58.972656 L 7.230469 58.488281 L 6.746094 58 L 6.746094 22.441406 L 68.285156 22.441406 Z M 37.515625 61.570312 C 53.9375 61.570312 67.566406 61.519531 67.832031 61.4375 C 68.269531 61.320312 68.285156 61.335938 68.285156 61.988281 C 68.285156 62.859375 68.066406 63.261719 67.449219 63.582031 C 67.011719 63.800781 63.453125 63.832031 37.515625 63.832031 C 11.578125 63.832031 8.015625 63.800781 7.578125 63.582031 C 6.960938 63.261719 6.742188 62.859375 6.742188 61.988281 C 6.742188 61.335938 6.761719 61.320312 7.210938 61.4375 C 7.464844 61.519531 21.09375 61.570312 37.515625 61.570312 Z M 37.515625 61.570312 " fill-opacity="1" fill-rule="nonzero"/></g><path fill="#000000" d="M 36.59375 39.316406 C 34.6875 46.40625 32.980469 52.65625 32.816406 53.226562 L 32.515625 54.28125 L 33.382812 54.53125 C 35.171875 55.035156 34.921875 55.371094 36.09375 51.011719 C 36.660156 48.886719 38.351562 42.683594 39.839844 37.238281 C 41.308594 31.773438 42.53125 27.265625 42.53125 27.234375 C 42.53125 27.183594 42.097656 27.03125 41.578125 26.878906 C 41.042969 26.730469 40.492188 26.578125 40.339844 26.527344 C 40.121094 26.480469 39.472656 28.707031 36.59375 39.316406 Z M 36.59375 39.316406 " fill-opacity="1" fill-rule="nonzero"/><path fill="#000000" d="M 25.941406 34.824219 C 20.019531 40.472656 19.902344 40.621094 20.222656 41.445312 C 20.273438 41.59375 22.578125 43.875 25.339844 46.503906 C 28.902344 49.90625 30.40625 51.230469 30.492188 51.078125 C 30.558594 50.945312 30.742188 50.324219 30.910156 49.6875 L 31.226562 48.550781 L 30.054688 47.425781 C 29.421875 46.824219 27.632812 45.097656 26.09375 43.621094 L 23.265625 40.941406 L 27.847656 36.582031 C 30.355469 34.1875 32.664062 32.007812 32.964844 31.722656 L 33.5 31.238281 L 32.632812 30.265625 L 31.746094 29.277344 Z M 25.941406 34.824219 " fill-opacity="1" fill-rule="nonzero"/><path fill="#000000" d="M 44.21875 31.640625 C 44.035156 32.359375 43.867188 33.03125 43.867188 33.113281 C 43.867188 33.199219 45.625 34.957031 47.765625 37.019531 C 49.890625 39.097656 51.644531 40.875 51.644531 40.972656 C 51.644531 41.074219 49.371094 43.289062 46.578125 45.902344 L 41.527344 50.644531 L 42.3125 51.53125 C 42.765625 52 43.199219 52.386719 43.300781 52.386719 C 43.632812 52.335938 54.871094 41.695312 54.953125 41.34375 C 55.089844 40.839844 54.6875 39.984375 54.101562 39.515625 C 53.816406 39.300781 51.578125 37.136719 49.085938 34.722656 L 44.585938 30.332031 Z M 44.21875 31.640625 " fill-opacity="1" fill-rule="nonzero"/></svg>