<svg xmlns="http://www.w3.org/2000/svg" xmlns:xlink="http://www.w3.org/1999/xlink" width="100" zoomAndPan="magnify" viewBox="0 0 75 74.999997" height="100" preserveAspectRatio="xMidYMid meet" version="1.0"><defs><clipPath id="id1"><path d="M 48 14.4375 L 74 14.4375 L 74 60 L 48 60 Z M 48 14.4375 " clip-rule="nonzero"/></clipPath><clipPath id="id2"><path d="M 1 14.4375 L 27 14.4375 L 27 60 L 1 60 Z M 1 14.4375 " clip-rule="nonzero"/></clipPath></defs><g clip-path="url(#id1)"><path fill="#000000" d="M 73.335938 35.691406 L 52.800781 15.328125 C 51.902344 14.4375 50.441406 14.4375 49.539062 15.328125 C 48.636719 16.21875 48.636719 17.667969 49.539062 18.558594 L 68.441406 37.308594 L 49.539062 56.058594 C 48.640625 56.949219 48.640625 58.398438 49.539062 59.292969 C 50.441406 60.183594 51.902344 60.183594 52.804688 59.292969 L 73.339844 38.925781 C 74.222656 38.042969 74.222656 36.574219 73.335938 35.691406 Z M 73.335938 35.691406 " fill-opacity="1" fill-rule="nonzero"/></g><g clip-path="url(#id2)"><path fill="#000000" d="M 25.472656 15.328125 C 24.570312 14.4375 23.109375 14.4375 22.207031 15.328125 L 1.675781 35.691406 C 0.785156 36.574219 0.785156 38.042969 1.675781 38.925781 L 22.207031 59.292969 C 23.109375 60.183594 24.570312 60.183594 25.472656 59.292969 C 26.375 58.402344 26.375 56.953125 25.472656 56.0625 L 6.566406 37.308594 L 25.46875 18.558594 C 26.375 17.667969 26.375 16.21875 25.472656 15.328125 Z M 25.472656 15.328125 " fill-opacity="1" fill-rule="nonzero"/></g></svg>