<svg xmlns="http://www.w3.org/2000/svg" xmlns:xlink="http://www.w3.org/1999/xlink" width="100" zoomAndPan="magnify" viewBox="0 0 75 74.999997" height="100" preserveAspectRatio="xMidYMid meet" version="1.0"><defs><clipPath id="id1"><path d="M 4.25 7 L 14 7 L 14 31 L 4.25 31 Z M 4.25 7 " clip-rule="nonzero"/></clipPath><clipPath id="id2"><path d="M 9 68 L 11 68 L 11 71.777344 L 9 71.777344 Z M 9 68 " clip-rule="nonzero"/></clipPath><clipPath id="id3"><path d="M 20 2.777344 L 70.25 2.777344 L 70.25 71.777344 L 20 71.777344 Z M 20 2.777344 " clip-rule="nonzero"/></clipPath></defs><path fill="#e0e0e0" d="M 38.839844 28.871094 L 39.753906 21.703125 C 41.476562 22.242188 42.714844 23.859375 42.714844 25.691406 L 42.714844 28.871094 Z M 38.839844 28.871094 " fill-opacity="1" fill-rule="nonzero"/><path fill="#e0e0e0" d="M 26.671875 28.871094 L 26.671875 25.691406 C 26.671875 23.96875 28.234375 22.214844 30.226562 21.675781 L 31.167969 28.871094 Z M 26.671875 28.871094 " fill-opacity="1" fill-rule="nonzero"/><path fill="#4a555f" d="M 34.964844 20.519531 C 32.058594 20.519531 29.714844 18.148438 29.714844 15.265625 C 29.714844 12.355469 32.082031 10.011719 34.964844 10.011719 C 37.871094 10.011719 40.210938 12.382812 40.210938 15.265625 C 40.210938 18.175781 37.871094 20.519531 34.964844 20.519531 Z M 34.964844 10.902344 C 32.566406 10.902344 30.601562 12.867188 30.601562 15.265625 C 30.601562 17.664062 32.566406 19.628906 34.964844 19.628906 C 37.359375 19.628906 39.324219 17.664062 39.324219 15.265625 C 39.324219 12.867188 37.359375 10.902344 34.964844 10.902344 Z M 34.964844 10.902344 " fill-opacity="1" fill-rule="nonzero"/><path fill="#f1eff0" d="M 34.964844 18.742188 C 33.050781 18.742188 31.492188 17.179688 31.492188 15.265625 C 31.492188 13.351562 33.050781 11.789062 34.964844 11.789062 C 36.875 11.789062 38.4375 13.351562 38.4375 15.265625 C 38.4375 17.179688 36.875 18.742188 34.964844 18.742188 Z M 34.964844 18.742188 " fill-opacity="1" fill-rule="nonzero"/><path fill="#4a555f" d="M 44.625 28.871094 L 43.710938 28.871094 C 43.710938 28.519531 43.710938 28.171875 43.710938 27.820312 C 43.710938 27.144531 43.738281 26.417969 43.710938 25.746094 C 43.632812 22.808594 41.289062 20.574219 38.300781 20.519531 C 36.957031 20.492188 35.609375 20.519531 34.289062 20.519531 C 33.484375 20.519531 32.648438 20.519531 31.839844 20.519531 C 31.222656 20.519531 30.578125 20.519531 29.984375 20.625 C 28.503906 20.921875 27.183594 21.867188 26.429688 23.1875 C 25.625 24.558594 25.675781 26.257812 25.703125 27.875 C 25.703125 28.222656 25.730469 28.546875 25.730469 28.871094 L 24.84375 28.871094 C 24.84375 28.546875 24.84375 28.222656 24.816406 27.902344 C 24.789062 26.148438 24.734375 24.34375 25.652344 22.753906 C 26.539062 21.21875 28.101562 20.113281 29.824219 19.765625 C 30.496094 19.628906 31.195312 19.628906 31.867188 19.65625 C 32.675781 19.65625 33.484375 19.65625 34.316406 19.65625 C 35.636719 19.65625 37.007812 19.65625 38.355469 19.65625 C 41.773438 19.710938 44.546875 22.378906 44.652344 25.746094 C 44.679688 26.445312 44.679688 27.171875 44.652344 27.875 C 44.625 28.195312 44.625 28.546875 44.625 28.871094 Z M 44.625 28.871094 " fill-opacity="1" fill-rule="nonzero"/><path fill="#4a555f" d="M 32.109375 28.925781 L 30.925781 19.628906 L 32.785156 19.628906 L 34.613281 21.785156 L 32.566406 25.339844 L 33 28.789062 Z M 31.949219 20.519531 L 32.378906 23.886719 L 33.511719 21.894531 L 32.351562 20.519531 Z M 31.949219 20.519531 " fill-opacity="1" fill-rule="nonzero"/><path fill="#4a555f" d="M 37.898438 28.925781 L 37.007812 28.816406 L 37.441406 25.367188 L 35.394531 21.8125 L 37.226562 19.65625 L 39.082031 19.65625 Z M 36.5 21.894531 L 37.628906 23.886719 L 38.058594 20.519531 L 37.628906 20.519531 Z M 36.5 21.894531 " fill-opacity="1" fill-rule="nonzero"/><path fill="#4a555f" d="M 34.53125 22.945312 L 35.421875 22.945312 L 35.421875 28.898438 L 34.53125 28.898438 Z M 34.53125 22.945312 " fill-opacity="1" fill-rule="nonzero"/><path fill="#4a555f" d="M 34.964844 23.644531 L 33.726562 22.136719 L 34.398438 21.570312 L 34.992188 22.269531 L 35.691406 21.488281 L 36.363281 22.082031 Z M 34.964844 23.644531 " fill-opacity="1" fill-rule="nonzero"/><path fill="#4a555f" d="M 36.847656 26.363281 C 36.847656 26.507812 36.796875 26.628906 36.699219 26.726562 C 36.597656 26.828125 36.476562 26.875 36.335938 26.875 C 36.195312 26.875 36.074219 26.828125 35.976562 26.726562 C 35.875 26.628906 35.824219 26.507812 35.824219 26.363281 C 35.824219 26.222656 35.875 26.101562 35.976562 26.003906 C 36.074219 25.902344 36.195312 25.851562 36.335938 25.851562 C 36.476562 25.851562 36.597656 25.902344 36.699219 26.003906 C 36.796875 26.101562 36.847656 26.222656 36.847656 26.363281 Z M 36.847656 26.363281 " fill-opacity="1" fill-rule="nonzero"/><path fill="#4a555f" d="M 44.625 29.328125 L 24.816406 29.328125 L 24.816406 7.183594 L 44.601562 7.183594 L 44.601562 29.328125 Z M 25.703125 28.4375 L 43.710938 28.4375 L 43.710938 8.074219 L 25.703125 8.074219 Z M 25.703125 28.4375 " fill-opacity="1" fill-rule="nonzero"/><path fill="#4a555f" d="M 50.039062 11.0625 L 65.21875 11.0625 L 65.21875 11.953125 L 50.039062 11.953125 Z M 50.039062 11.0625 " fill-opacity="1" fill-rule="nonzero"/><path fill="#4a555f" d="M 50.039062 15.886719 L 65.21875 15.886719 L 65.21875 16.773438 L 50.039062 16.773438 Z M 50.039062 15.886719 " fill-opacity="1" fill-rule="nonzero"/><path fill="#4a555f" d="M 50.039062 20.707031 L 65.21875 20.707031 L 65.21875 21.597656 L 50.039062 21.597656 Z M 50.039062 20.707031 " fill-opacity="1" fill-rule="nonzero"/><path fill="#4a555f" d="M 50.039062 25.53125 L 65.21875 25.53125 L 65.21875 26.417969 L 50.039062 26.417969 Z M 50.039062 25.53125 " fill-opacity="1" fill-rule="nonzero"/><path fill="#4a555f" d="M 25.328125 36.089844 L 28.90625 36.089844 L 28.90625 36.980469 L 25.328125 36.980469 Z M 25.328125 36.089844 " fill-opacity="1" fill-rule="nonzero"/><path fill="#4a555f" d="M 32.273438 36.089844 L 65.21875 36.089844 L 65.21875 36.980469 L 32.273438 36.980469 Z M 32.273438 36.089844 " fill-opacity="1" fill-rule="nonzero"/><path fill="#4a555f" d="M 32.273438 41.183594 L 65.21875 41.183594 L 65.21875 42.070312 L 32.273438 42.070312 Z M 32.273438 41.183594 " fill-opacity="1" fill-rule="nonzero"/><path fill="#4a555f" d="M 25.328125 46.921875 L 28.90625 46.921875 L 28.90625 47.808594 L 25.328125 47.808594 Z M 25.328125 46.921875 " fill-opacity="1" fill-rule="nonzero"/><path fill="#4a555f" d="M 32.273438 46.921875 L 65.21875 46.921875 L 65.21875 47.808594 L 32.273438 47.808594 Z M 32.273438 46.921875 " fill-opacity="1" fill-rule="nonzero"/><path fill="#4a555f" d="M 32.273438 52.039062 L 65.21875 52.039062 L 65.21875 52.929688 L 32.273438 52.929688 Z M 32.273438 52.039062 " fill-opacity="1" fill-rule="nonzero"/><path fill="#4a555f" d="M 25.328125 57.777344 L 28.90625 57.777344 L 28.90625 58.667969 L 25.328125 58.667969 Z M 25.328125 57.777344 " fill-opacity="1" fill-rule="nonzero"/><path fill="#4a555f" d="M 32.273438 57.777344 L 65.21875 57.777344 L 65.21875 58.667969 L 32.273438 58.667969 Z M 32.273438 57.777344 " fill-opacity="1" fill-rule="nonzero"/><path fill="#4a555f" d="M 32.273438 62.894531 L 65.21875 62.894531 L 65.21875 63.785156 L 32.273438 63.785156 Z M 32.273438 62.894531 " fill-opacity="1" fill-rule="nonzero"/><path fill="#4a555f" d="M 13.835938 39.402344 L 5.867188 39.402344 L 5.867188 9.714844 L 13.835938 9.714844 Z M 6.753906 38.515625 L 12.945312 38.515625 L 12.945312 10.605469 L 6.753906 10.605469 Z M 6.753906 38.515625 " fill-opacity="1" fill-rule="nonzero"/><path fill="#3871a1" d="M 7.777344 11.65625 L 11.894531 11.65625 L 11.894531 37.492188 L 7.777344 37.492188 Z M 7.777344 11.65625 " fill-opacity="1" fill-rule="nonzero"/><path fill="#4a555f" d="M 11.089844 69.417969 L 8.613281 69.417969 L 8.53125 69.011719 C 6.753906 59.851562 5.867188 50.476562 5.867188 41.15625 L 5.867188 38.515625 L 13.835938 38.515625 L 13.835938 41.15625 C 13.835938 50.476562 12.945312 59.851562 11.167969 69.011719 Z M 9.339844 68.527344 L 10.335938 68.527344 C 12.058594 59.527344 12.917969 50.316406 12.917969 41.15625 L 12.917969 39.402344 L 6.726562 39.402344 L 6.726562 41.15625 C 6.753906 50.316406 7.617188 59.527344 9.339844 68.527344 Z M 9.339844 68.527344 " fill-opacity="1" fill-rule="nonzero"/><path fill="#3871a1" d="M 9.851562 65.484375 C 8.476562 57.453125 7.777344 49.292969 7.777344 41.15625 L 7.777344 40.453125 L 11.894531 40.453125 L 11.894531 41.15625 C 11.921875 49.292969 11.222656 57.453125 9.851562 65.484375 Z M 9.851562 65.484375 " fill-opacity="1" fill-rule="nonzero"/><g clip-path="url(#id1)"><path fill="#4a555f" d="M 5.140625 30.296875 L 4.25 30.296875 L 4.25 7.882812 L 13.835938 7.882812 L 13.835938 10.171875 L 12.945312 10.171875 L 12.945312 8.773438 L 5.140625 8.773438 Z M 5.140625 30.296875 " fill-opacity="1" fill-rule="nonzero"/></g><g clip-path="url(#id2)"><path fill="#4a555f" d="M 9.394531 68.984375 L 10.28125 68.984375 L 10.28125 71.761719 L 9.394531 71.761719 Z M 9.394531 68.984375 " fill-opacity="1" fill-rule="nonzero"/></g><g clip-path="url(#id3)"><path fill="#4a555f" d="M 70.25 71.246094 L 20.242188 71.246094 L 20.242188 2.792969 L 70.25 2.792969 Z M 21.128906 70.359375 L 69.363281 70.359375 L 69.363281 3.679688 L 21.128906 3.679688 Z M 21.128906 70.359375 " fill-opacity="1" fill-rule="nonzero"/></g></svg>