<svg xmlns="http://www.w3.org/2000/svg" xmlns:xlink="http://www.w3.org/1999/xlink" width="100" zoomAndPan="magnify" viewBox="0 0 75 74.999997" height="100" preserveAspectRatio="xMidYMid meet" version="1.0"><defs><clipPath id="id1"><path d="M 27 60 L 45 60 L 45 73.5 L 27 73.5 Z M 27 60 " clip-rule="nonzero"/></clipPath></defs><path fill="#363636" d="M 39.269531 12.316406 C 39.082031 12.316406 38.902344 12.277344 38.734375 12.195312 C 38.566406 12.109375 38.425781 11.996094 38.308594 11.847656 C 38.191406 11.699219 38.117188 11.535156 38.074219 11.351562 C 38.035156 11.167969 38.039062 10.984375 38.082031 10.800781 C 38.714844 8.160156 39.089844 5.484375 39.214844 2.773438 L 34.710938 3.523438 C 35.324219 6.011719 35.625 8.535156 35.609375 11.09375 C 35.609375 11.257812 35.578125 11.414062 35.515625 11.5625 C 35.453125 11.710938 35.367188 11.84375 35.253906 11.957031 C 35.136719 12.074219 35.003906 12.160156 34.855469 12.222656 C 34.707031 12.285156 34.550781 12.316406 34.390625 12.316406 C 34.226562 12.316406 34.070312 12.285156 33.921875 12.222656 C 33.773438 12.160156 33.640625 12.074219 33.527344 11.957031 C 33.410156 11.84375 33.324219 11.710938 33.261719 11.5625 C 33.199219 11.414062 33.167969 11.257812 33.167969 11.09375 C 33.195312 8.308594 32.804688 5.578125 32.003906 2.910156 C 31.953125 2.742188 31.9375 2.570312 31.957031 2.394531 C 31.980469 2.21875 32.035156 2.054688 32.128906 1.90625 C 32.222656 1.753906 32.339844 1.628906 32.488281 1.53125 C 32.632812 1.433594 32.792969 1.371094 32.96875 1.339844 L 40.289062 0.117188 C 40.46875 0.0898438 40.644531 0.0976562 40.820312 0.148438 C 40.996094 0.195312 41.152344 0.28125 41.289062 0.398438 C 41.425781 0.519531 41.53125 0.660156 41.605469 0.828125 C 41.679688 0.992188 41.714844 1.167969 41.710938 1.347656 C 41.65625 4.742188 41.238281 8.085938 40.453125 11.386719 C 40.386719 11.660156 40.242188 11.882812 40.023438 12.054688 C 39.800781 12.230469 39.550781 12.316406 39.269531 12.316406 Z M 39.269531 12.316406 " fill-opacity="1" fill-rule="nonzero"/><g clip-path="url(#id1)"><path fill="#e78753" d="M 36.828125 73.402344 C 36.613281 73.402344 36.410156 73.347656 36.21875 73.238281 C 34.136719 72.046875 32.351562 70.507812 30.867188 68.621094 C 29.382812 66.734375 28.304688 64.640625 27.636719 62.332031 C 27.589844 62.179688 27.578125 62.019531 27.59375 61.859375 C 27.613281 61.699219 27.660156 61.546875 27.738281 61.402344 C 27.816406 61.261719 27.917969 61.140625 28.042969 61.039062 C 28.167969 60.9375 28.308594 60.863281 28.464844 60.820312 C 28.621094 60.773438 28.777344 60.757812 28.941406 60.777344 C 29.101562 60.792969 29.25 60.84375 29.394531 60.921875 C 29.535156 60.996094 29.65625 61.101562 29.757812 61.226562 C 29.859375 61.351562 29.933594 61.492188 29.976562 61.648438 C 30.527344 63.535156 31.390625 65.261719 32.570312 66.828125 C 33.75 68.398438 35.171875 69.703125 36.828125 70.753906 C 38.902344 69.429688 40.589844 67.726562 41.894531 65.640625 C 41.980469 65.503906 42.089844 65.386719 42.222656 65.292969 C 42.355469 65.199219 42.5 65.132812 42.65625 65.097656 C 42.8125 65.0625 42.972656 65.054688 43.132812 65.082031 C 43.292969 65.109375 43.441406 65.164062 43.578125 65.25 C 43.714844 65.335938 43.832031 65.445312 43.925781 65.578125 C 44.019531 65.707031 44.085938 65.855469 44.121094 66.011719 C 44.160156 66.167969 44.164062 66.328125 44.136719 66.488281 C 44.109375 66.648438 44.054688 66.796875 43.96875 66.933594 C 42.316406 69.578125 40.140625 71.679688 37.445312 73.238281 C 37.253906 73.347656 37.046875 73.402344 36.828125 73.402344 Z M 36.828125 73.402344 " fill-opacity="1" fill-rule="nonzero"/></g><path fill="#e78753" d="M 26.691406 64.691406 C 26.40625 64.691406 26.152344 64.601562 25.925781 64.421875 C 24.078125 62.875 22.539062 61.066406 21.304688 58.996094 C 20.070312 56.921875 19.210938 54.707031 18.726562 52.34375 C 18.691406 52.183594 18.6875 52.027344 18.71875 51.867188 C 18.746094 51.707031 18.800781 51.558594 18.890625 51.421875 C 18.976562 51.285156 19.085938 51.167969 19.21875 51.074219 C 19.351562 50.984375 19.496094 50.917969 19.65625 50.882812 C 19.8125 50.847656 19.972656 50.84375 20.132812 50.875 C 20.292969 50.902344 20.441406 50.960938 20.578125 51.046875 C 20.714844 51.136719 20.828125 51.246094 20.921875 51.378906 C 21.011719 51.511719 21.078125 51.660156 21.113281 51.816406 C 21.511719 53.761719 22.195312 55.601562 23.167969 57.332031 C 24.136719 59.0625 25.347656 60.605469 26.800781 61.957031 C 27.21875 61.679688 27.632812 61.371094 28.046875 61.039062 C 30.160156 59.308594 31.839844 57.226562 33.089844 54.792969 C 33.164062 54.652344 33.265625 54.53125 33.390625 54.429688 C 33.515625 54.328125 33.652344 54.253906 33.804688 54.207031 C 33.960938 54.160156 34.117188 54.144531 34.273438 54.160156 C 34.433594 54.171875 34.585938 54.21875 34.726562 54.292969 C 34.871094 54.367188 34.992188 54.464844 35.097656 54.585938 C 35.199219 54.710938 35.277344 54.847656 35.324219 55 C 35.375 55.152344 35.390625 55.308594 35.378906 55.46875 C 35.367188 55.628906 35.324219 55.78125 35.253906 55.925781 C 33.84375 58.65625 31.953125 60.996094 29.574219 62.941406 C 28.859375 63.523438 28.105469 64.046875 27.3125 64.519531 C 27.121094 64.632812 26.914062 64.691406 26.691406 64.691406 Z M 26.691406 64.691406 " fill-opacity="1" fill-rule="nonzero"/><path fill="#e78753" d="M 16.589844 54.023438 C 16.171875 54.023438 15.84375 53.855469 15.601562 53.515625 C 14.832031 52.4375 14.195312 51.285156 13.6875 50.058594 C 13.183594 48.835938 12.824219 47.570312 12.609375 46.261719 C 12.390625 44.957031 12.328125 43.640625 12.410156 42.320312 C 12.496094 40.996094 12.730469 39.699219 13.109375 38.433594 C 13.15625 38.277344 13.230469 38.136719 13.332031 38.007812 C 13.429688 37.882812 13.554688 37.78125 13.695312 37.703125 C 13.835938 37.625 13.988281 37.578125 14.148438 37.558594 C 14.308594 37.539062 14.46875 37.554688 14.625 37.601562 C 14.777344 37.644531 14.917969 37.71875 15.046875 37.820312 C 15.171875 37.921875 15.273438 38.042969 15.351562 38.183594 C 15.429688 38.328125 15.476562 38.476562 15.496094 38.640625 C 15.511719 38.800781 15.5 38.957031 15.453125 39.113281 C 15.144531 40.144531 14.949219 41.199219 14.863281 42.273438 C 14.78125 43.347656 14.8125 44.417969 14.960938 45.488281 C 15.109375 46.554688 15.371094 47.59375 15.742188 48.605469 C 16.113281 49.617188 16.589844 50.574219 17.167969 51.484375 C 17.976562 51.347656 18.769531 51.15625 19.554688 50.914062 C 21.496094 50.3125 23.28125 49.40625 24.914062 48.191406 C 26.546875 46.980469 27.933594 45.53125 29.070312 43.84375 C 29.15625 43.699219 29.265625 43.578125 29.402344 43.480469 C 29.539062 43.382812 29.6875 43.3125 29.851562 43.277344 C 30.015625 43.238281 30.179688 43.238281 30.34375 43.269531 C 30.507812 43.296875 30.660156 43.359375 30.796875 43.453125 C 30.9375 43.546875 31.050781 43.664062 31.144531 43.804688 C 31.234375 43.945312 31.292969 44.097656 31.320312 44.265625 C 31.347656 44.429688 31.34375 44.59375 31.304688 44.757812 C 31.265625 44.917969 31.195312 45.066406 31.09375 45.203125 C 30.28125 46.40625 29.347656 47.511719 28.300781 48.515625 C 27.25 49.519531 26.105469 50.402344 24.867188 51.160156 C 23.628906 51.921875 22.324219 52.542969 20.953125 53.023438 C 19.582031 53.503906 18.179688 53.832031 16.738281 54.015625 C 16.6875 54.019531 16.640625 54.023438 16.589844 54.023438 Z M 16.589844 54.023438 " fill-opacity="1" fill-rule="nonzero"/><path fill="#e78753" d="M 47.015625 64.6875 C 46.792969 64.6875 46.589844 64.628906 46.398438 64.519531 C 45.589844 64.039062 44.824219 63.503906 44.097656 62.914062 C 42.285156 61.40625 40.738281 59.664062 39.453125 57.683594 C 38.171875 55.707031 37.214844 53.582031 36.582031 51.308594 C 36.539062 51.152344 36.527344 50.996094 36.546875 50.835938 C 36.566406 50.675781 36.613281 50.527344 36.691406 50.386719 C 36.769531 50.246094 36.871094 50.128906 36.996094 50.027344 C 37.125 49.925781 37.261719 49.855469 37.417969 49.808594 C 37.570312 49.765625 37.730469 49.75 37.886719 49.769531 C 38.046875 49.785156 38.199219 49.832031 38.339844 49.910156 C 38.480469 49.988281 38.601562 50.085938 38.703125 50.210938 C 38.804688 50.335938 38.878906 50.476562 38.925781 50.628906 C 39.488281 52.660156 40.339844 54.5625 41.484375 56.332031 C 42.625 58.105469 44.007812 59.664062 45.625 61.015625 C 46.050781 61.355469 46.476562 61.671875 46.90625 61.957031 C 48.351562 60.601562 49.558594 59.0625 50.527344 57.332031 C 51.492188 55.601562 52.175781 53.765625 52.570312 51.820312 C 52.601562 51.660156 52.664062 51.511719 52.753906 51.375 C 52.847656 51.238281 52.960938 51.125 53.097656 51.035156 C 53.234375 50.945312 53.386719 50.886719 53.546875 50.859375 C 53.707031 50.828125 53.867188 50.832031 54.027344 50.867188 C 54.1875 50.902344 54.335938 50.964844 54.46875 51.0625 C 54.605469 51.15625 54.714844 51.273438 54.800781 51.410156 C 54.886719 51.550781 54.945312 51.703125 54.972656 51.863281 C 54.996094 52.027344 54.992188 52.1875 54.953125 52.347656 C 54.476562 54.707031 53.621094 56.921875 52.394531 58.988281 C 51.164062 61.058594 49.628906 62.867188 47.789062 64.417969 C 47.5625 64.597656 47.304688 64.6875 47.015625 64.6875 Z M 47.015625 64.6875 " fill-opacity="1" fill-rule="nonzero"/><path fill="#e78753" d="M 57.070312 54.023438 C 57.019531 54.023438 56.96875 54.019531 56.917969 54.015625 C 55.480469 53.832031 54.074219 53.503906 52.703125 53.019531 C 51.332031 52.539062 50.03125 51.917969 48.792969 51.160156 C 47.554688 50.398438 46.410156 49.519531 45.359375 48.511719 C 44.3125 47.507812 43.378906 46.40625 42.5625 45.203125 C 42.476562 45.066406 42.417969 44.921875 42.390625 44.761719 C 42.363281 44.605469 42.363281 44.449219 42.394531 44.292969 C 42.429688 44.136719 42.488281 43.992188 42.578125 43.859375 C 42.667969 43.726562 42.777344 43.613281 42.910156 43.523438 C 43.042969 43.4375 43.191406 43.375 43.347656 43.34375 C 43.503906 43.3125 43.660156 43.308594 43.816406 43.339844 C 43.972656 43.371094 44.121094 43.429688 44.253906 43.515625 C 44.386719 43.601562 44.5 43.710938 44.59375 43.84375 C 45.273438 44.847656 46.050781 45.777344 46.921875 46.625 C 47.792969 47.472656 48.738281 48.226562 49.761719 48.882812 C 50.785156 49.539062 51.863281 50.085938 52.996094 50.523438 C 54.128906 50.960938 55.292969 51.28125 56.492188 51.484375 C 57.070312 50.574219 57.546875 49.617188 57.921875 48.605469 C 58.292969 47.59375 58.550781 46.554688 58.699219 45.488281 C 58.847656 44.417969 58.878906 43.347656 58.796875 42.273438 C 58.714844 41.199219 58.515625 40.144531 58.207031 39.113281 C 58.160156 38.957031 58.148438 38.800781 58.164062 38.640625 C 58.183594 38.476562 58.230469 38.328125 58.308594 38.183594 C 58.386719 38.042969 58.488281 37.921875 58.617188 37.820312 C 58.742188 37.71875 58.882812 37.644531 59.039062 37.601562 C 59.195312 37.554688 59.351562 37.539062 59.511719 37.558594 C 59.675781 37.578125 59.824219 37.625 59.96875 37.703125 C 60.109375 37.78125 60.230469 37.882812 60.332031 38.007812 C 60.433594 38.136719 60.503906 38.277344 60.550781 38.433594 C 60.933594 39.699219 61.164062 40.996094 61.25 42.320312 C 61.335938 43.640625 61.269531 44.957031 61.054688 46.261719 C 60.835938 47.570312 60.476562 48.835938 59.972656 50.0625 C 59.464844 51.285156 58.828125 52.4375 58.0625 53.515625 C 57.816406 53.855469 57.484375 54.023438 57.070312 54.023438 Z M 57.070312 54.023438 " fill-opacity="1" fill-rule="nonzero"/><path fill="#e78753" d="M 36.828125 52.765625 C 36.613281 52.765625 36.410156 52.710938 36.21875 52.601562 C 35.886719 52.410156 35.5625 52.207031 35.242188 51.992188 C 32.574219 50.226562 30.492188 47.921875 29.003906 45.085938 C 27.59375 42.410156 26.890625 39.558594 26.898438 36.535156 C 26.898438 36.046875 26.921875 35.570312 26.960938 35.09375 C 26.972656 34.933594 27.015625 34.777344 27.089844 34.632812 C 27.160156 34.488281 27.261719 34.363281 27.382812 34.261719 C 27.503906 34.15625 27.644531 34.078125 27.796875 34.027344 C 27.953125 33.976562 28.109375 33.957031 28.269531 33.96875 C 28.433594 33.984375 28.585938 34.027344 28.730469 34.097656 C 28.875 34.171875 28.996094 34.269531 29.101562 34.394531 C 29.207031 34.515625 29.285156 34.65625 29.335938 34.808594 C 29.386719 34.964844 29.40625 35.121094 29.394531 35.28125 C 29.359375 35.695312 29.339844 36.113281 29.339844 36.535156 C 29.335938 39.15625 29.945312 41.628906 31.167969 43.949219 C 32.460938 46.414062 34.265625 48.417969 36.585938 49.957031 C 36.667969 50.011719 36.746094 50.0625 36.828125 50.113281 C 36.914062 50.0625 36.996094 50.007812 37.074219 49.953125 C 39.390625 48.417969 41.199219 46.417969 42.496094 43.957031 C 43.242188 42.53125 43.765625 41.023438 44.054688 39.4375 C 44.085938 39.277344 44.144531 39.128906 44.230469 38.996094 C 44.320312 38.859375 44.429688 38.746094 44.5625 38.652344 C 44.695312 38.5625 44.84375 38.496094 45 38.464844 C 45.160156 38.429688 45.316406 38.429688 45.476562 38.457031 C 45.636719 38.488281 45.78125 38.546875 45.917969 38.632812 C 46.054688 38.722656 46.167969 38.832031 46.261719 38.964844 C 46.351562 39.097656 46.414062 39.246094 46.449219 39.402344 C 46.484375 39.5625 46.484375 39.71875 46.457031 39.878906 C 46.117188 41.707031 45.519531 43.441406 44.65625 45.085938 C 43.167969 47.917969 41.09375 50.21875 38.425781 51.988281 C 38.101562 52.199219 37.773438 52.40625 37.4375 52.597656 C 37.25 52.707031 37.046875 52.765625 36.828125 52.765625 Z M 36.828125 52.765625 " fill-opacity="1" fill-rule="nonzero"/><path fill="#e78753" d="M 15.53125 40.039062 C 15.078125 40.039062 14.632812 40.023438 14.195312 39.992188 C 13.183594 39.925781 12.183594 39.765625 11.203125 39.503906 C 10.75 39.378906 10.464844 39.085938 10.347656 38.628906 C 8.714844 32.277344 12.945312 24.410156 17.753906 20.234375 C 19.414062 18.894531 21.21875 17.792969 23.171875 16.933594 C 25.125 16.078125 27.15625 15.492188 29.265625 15.175781 C 30.195312 15.027344 31.132812 14.925781 32.070312 14.875 C 35.246094 14.714844 38.417969 14.714844 41.589844 14.875 C 42.507812 14.921875 43.421875 15.019531 44.328125 15.167969 C 46.453125 15.472656 48.5 16.054688 50.464844 16.914062 C 52.429688 17.777344 54.246094 18.882812 55.914062 20.234375 C 60.722656 24.410156 64.953125 32.277344 63.320312 38.628906 C 63.203125 39.085938 62.917969 39.378906 62.464844 39.503906 C 61.484375 39.765625 60.488281 39.925781 59.472656 39.992188 C 56.910156 40.09375 54.382812 39.824219 51.894531 39.183594 C 49.410156 38.546875 47.066406 37.566406 44.863281 36.242188 C 43.824219 35.625 42.847656 34.921875 41.929688 34.136719 C 39.253906 31.8125 37.183594 29.035156 35.722656 25.800781 C 34.992188 24.183594 34.523438 22.492188 34.3125 20.730469 C 34.296875 20.570312 34.3125 20.414062 34.359375 20.261719 C 34.40625 20.105469 34.480469 19.96875 34.582031 19.84375 C 34.683594 19.71875 34.804688 19.617188 34.945312 19.542969 C 35.085938 19.464844 35.238281 19.417969 35.394531 19.402344 C 35.554688 19.382812 35.710938 19.398438 35.867188 19.441406 C 36.019531 19.484375 36.160156 19.558594 36.285156 19.65625 C 36.410156 19.757812 36.511719 19.878906 36.59375 20.015625 C 36.671875 20.15625 36.71875 20.308594 36.738281 20.464844 C 36.921875 21.980469 37.328125 23.429688 37.960938 24.816406 C 39.269531 27.714844 41.128906 30.207031 43.53125 32.289062 C 44.339844 32.984375 45.207031 33.605469 46.125 34.148438 C 48.109375 35.34375 50.222656 36.234375 52.464844 36.8125 C 54.707031 37.394531 56.988281 37.640625 59.300781 37.554688 C 59.910156 37.511719 60.515625 37.429688 61.117188 37.3125 C 61.96875 32.195312 58.445312 25.660156 54.324219 22.078125 C 51.277344 19.625 47.820312 18.125 43.953125 17.578125 C 43.128906 17.445312 42.300781 17.363281 41.464844 17.324219 C 38.378906 17.167969 35.289062 17.167969 32.199219 17.324219 C 31.347656 17.371094 30.5 17.460938 29.65625 17.597656 C 25.8125 18.15625 22.375 19.65625 19.347656 22.089844 C 15.222656 25.667969 11.695312 32.207031 12.554688 37.320312 C 13.15625 37.441406 13.757812 37.523438 14.371094 37.566406 C 16.683594 37.648438 18.964844 37.402344 21.207031 36.820312 C 23.449219 36.242188 25.5625 35.351562 27.546875 34.15625 C 28.464844 33.609375 29.332031 32.988281 30.144531 32.289062 C 31.101562 31.453125 31.984375 30.542969 32.785156 29.554688 C 32.886719 29.425781 33.011719 29.324219 33.152344 29.25 C 33.296875 29.171875 33.449219 29.125 33.609375 29.109375 C 33.769531 29.09375 33.925781 29.109375 34.082031 29.15625 C 34.238281 29.199219 34.378906 29.273438 34.503906 29.378906 C 34.628906 29.480469 34.730469 29.601562 34.808594 29.746094 C 34.882812 29.886719 34.929688 30.039062 34.945312 30.199219 C 34.964844 30.363281 34.949219 30.519531 34.902344 30.675781 C 34.855469 30.832031 34.78125 30.972656 34.679688 31.097656 C 33.785156 32.195312 32.808594 33.207031 31.742188 34.136719 C 30.824219 34.921875 29.84375 35.625 28.804688 36.242188 C 26.792969 37.4375 24.664062 38.359375 22.414062 39.003906 C 20.164062 39.648438 17.871094 39.992188 15.53125 40.039062 Z M 15.53125 40.039062 " fill-opacity="1" fill-rule="nonzero"/></svg>