<svg xmlns="http://www.w3.org/2000/svg" xmlns:xlink="http://www.w3.org/1999/xlink" width="100" zoomAndPan="magnify" viewBox="0 0 75 74.999997" height="100" preserveAspectRatio="xMidYMid meet" version="1.0"><defs><clipPath id="id1"><path d="M 0.871094 17.097656 L 74.371094 17.097656 L 74.371094 51 L 0.871094 51 Z M 0.871094 17.097656 " clip-rule="nonzero"/></clipPath><clipPath id="id2"><path d="M 49 45 L 71 45 L 71 65.847656 L 49 65.847656 Z M 49 45 " clip-rule="nonzero"/></clipPath><clipPath id="id3"><path d="M 59 47 L 74.371094 47 L 74.371094 51 L 59 51 Z M 59 47 " clip-rule="nonzero"/></clipPath></defs><rect x="-7.5" width="90" fill="#ffffff" y="-7.5" height="89.999996" fill-opacity="1"/><rect x="-7.5" width="90" fill="#ffffff" y="-7.5" height="89.999996" fill-opacity="1"/><rect x="-7.5" width="90" fill="#ffffff" y="-7.5" height="89.999996" fill-opacity="1"/><rect x="-7.5" width="90" fill="#ffffff" y="-7.5" height="89.999996" fill-opacity="1"/><g clip-path="url(#id1)"><path fill="#000000" d="M 5.824219 17.265625 C 4.144531 17.515625 2.359375 18.808594 1.585938 20.332031 C 0.886719 21.699219 0.871094 22.070312 0.917969 34.617188 L 0.960938 46.410156 L 1.4375 47.402344 C 2.300781 49.242188 3.847656 50.429688 5.796875 50.785156 C 6.332031 50.890625 14.050781 50.917969 27.675781 50.90625 L 48.742188 50.859375 L 48.128906 49.257812 L 47.519531 47.671875 L 26.890625 47.671875 C 12.683594 47.671875 6.136719 47.625 5.839844 47.507812 C 5.273438 47.300781 4.605469 46.664062 4.367188 46.082031 C 4.1875 45.683594 4.160156 43.53125 4.160156 34.039062 C 4.160156 26.207031 4.203125 22.335938 4.324219 22.054688 C 4.546875 21.460938 5.035156 20.972656 5.71875 20.660156 C 6.300781 20.394531 7.578125 20.378906 40.351562 20.378906 L 74.371094 20.378906 L 74.371094 17.113281 L 40.5 17.128906 C 21.859375 17.144531 6.257812 17.203125 5.824219 17.265625 Z M 5.824219 17.265625 " fill-opacity="1" fill-rule="nonzero"/></g><path fill="#000000" d="M 9.21875 33.207031 L 9.21875 40.253906 L 11.894531 40.253906 L 11.894531 37.761719 C 11.894531 35.003906 12.074219 33.535156 12.460938 32.988281 C 13.203125 31.949219 14.765625 31.859375 15.421875 32.824219 C 15.746094 33.3125 15.761719 33.433594 15.761719 36.785156 L 15.761719 40.253906 L 18.605469 40.253906 L 18.558594 36.355469 C 18.515625 32.554688 18.5 32.453125 18.140625 31.726562 C 17.578125 30.582031 16.804688 30.140625 15.316406 30.050781 C 13.871094 29.960938 13.023438 30.242188 12.339844 31 L 11.894531 31.519531 L 11.894531 26.164062 L 9.21875 26.164062 Z M 9.21875 33.207031 " fill-opacity="1" fill-rule="nonzero"/><path fill="#000000" d="M 58.082031 27.304688 C 58.023438 27.453125 56.953125 30.300781 55.703125 33.652344 C 54.453125 36.992188 53.382812 39.855469 53.324219 39.988281 C 53.234375 40.222656 53.335938 40.253906 54.46875 40.253906 L 55.734375 40.253906 L 56.566406 37.984375 C 57.027344 36.753906 58.140625 33.773438 59.035156 31.382812 L 60.65625 27.054688 L 59.421875 27.054688 C 58.378906 27.054688 58.171875 27.097656 58.082031 27.304688 Z M 58.082031 27.304688 " fill-opacity="1" fill-rule="nonzero"/><path fill="#000000" d="M 63.394531 33.550781 C 62.070312 37.109375 60.984375 40.089844 60.984375 40.152344 C 60.984375 40.210938 61.535156 40.253906 62.203125 40.222656 L 63.410156 40.179688 L 65.773438 33.875 C 67.066406 30.40625 68.167969 27.453125 68.214844 27.304688 C 68.289062 27.082031 68.167969 27.054688 67.054688 27.054688 L 65.820312 27.054688 Z M 63.394531 33.550781 " fill-opacity="1" fill-rule="nonzero"/><path fill="#000000" d="M 22.558594 28.417969 C 22.441406 28.683594 22.277344 29.160156 22.171875 29.472656 C 22.023438 29.902344 21.785156 30.167969 21.175781 30.570312 C 20.433594 31.058594 20.375 31.148438 20.375 31.664062 L 20.375 32.246094 L 21.714844 32.246094 L 21.714844 35.003906 C 21.714844 36.5625 21.789062 38.042969 21.875 38.414062 C 22.101562 39.304688 22.796875 40.03125 23.648438 40.253906 C 24.390625 40.460938 26.292969 40.375 26.964844 40.121094 C 27.351562 39.972656 27.367188 39.914062 27.367188 39.007812 L 27.367188 38.058594 L 26.21875 38.132812 C 24.480469 38.25 24.480469 38.238281 24.417969 34.898438 L 24.375 32.246094 L 27.171875 32.246094 L 27.273438 31.664062 C 27.320312 31.355469 27.320312 30.878906 27.273438 30.628906 L 27.1875 30.183594 L 25.816406 30.136719 L 24.464844 30.09375 L 24.417969 29.011719 L 24.375 27.941406 L 23.570312 27.941406 C 22.796875 27.941406 22.753906 27.957031 22.558594 28.417969 Z M 22.558594 28.417969 " fill-opacity="1" fill-rule="nonzero"/><path fill="#000000" d="M 30.652344 28.269531 C 30.578125 28.460938 30.398438 28.953125 30.25 29.367188 C 30.027344 30.019531 29.863281 30.195312 29.195312 30.597656 C 28.449219 31.042969 28.40625 31.117188 28.40625 31.664062 L 28.40625 32.246094 L 29.714844 32.246094 L 29.773438 35.316406 C 29.816406 38.148438 29.847656 38.445312 30.144531 39.007812 C 30.324219 39.347656 30.726562 39.792969 31.039062 39.972656 C 31.542969 40.285156 31.78125 40.328125 33.089844 40.3125 C 33.910156 40.3125 34.757812 40.222656 34.996094 40.136719 C 35.367188 39.972656 35.398438 39.914062 35.398438 39.007812 L 35.398438 38.058594 L 34.28125 38.132812 C 32.554688 38.265625 32.570312 38.3125 32.570312 34.972656 L 32.570312 32.257812 L 33.953125 32.214844 L 35.324219 32.171875 L 35.367188 31.160156 L 35.414062 30.167969 L 32.585938 30.167969 L 32.539062 29.085938 L 32.496094 28.019531 L 31.632812 27.972656 C 30.859375 27.929688 30.773438 27.957031 30.652344 28.269531 Z M 30.652344 28.269531 " fill-opacity="1" fill-rule="nonzero"/><path fill="#000000" d="M 41.660156 30.257812 C 41.378906 30.375 40.929688 30.703125 40.664062 30.984375 L 40.1875 31.503906 L 39.964844 30.863281 L 39.757812 30.242188 L 38.625 30.199219 L 37.480469 30.152344 L 37.480469 44.703125 L 40.351562 44.703125 L 40.277344 41.886719 L 40.203125 39.066406 L 40.769531 39.574219 C 42.03125 40.730469 44.144531 40.683594 45.4375 39.5 C 46.613281 38.417969 47.195312 36.222656 46.882812 33.996094 C 46.496094 31.3125 45.273438 30.019531 43.117188 30.019531 C 42.597656 30.035156 41.941406 30.125 41.660156 30.257812 Z M 43.460938 32.675781 C 44.011719 33.285156 44.21875 34.171875 44.144531 35.507812 C 44.027344 37.453125 43.34375 38.296875 41.988281 38.132812 C 40.695312 37.984375 40.234375 37.035156 40.335938 34.722656 C 40.382812 33.714844 40.472656 33.207031 40.664062 32.925781 C 41.257812 31.992188 42.730469 31.875 43.460938 32.675781 Z M 43.460938 32.675781 " fill-opacity="1" fill-rule="nonzero"/><path fill="#000000" d="M 49.304688 30.390625 C 49.007812 30.671875 48.933594 30.894531 48.933594 31.457031 C 48.949219 32.214844 49.113281 32.542969 49.632812 32.808594 C 50.078125 33.0625 51.03125 33.03125 51.402344 32.765625 C 52.164062 32.246094 52.222656 30.882812 51.507812 30.316406 C 50.941406 29.871094 49.78125 29.902344 49.304688 30.390625 Z M 49.304688 30.390625 " fill-opacity="1" fill-rule="nonzero"/><path fill="#000000" d="M 49.605469 37.613281 C 49.097656 37.882812 48.933594 38.207031 48.933594 38.949219 C 48.933594 39.957031 49.378906 40.402344 50.394531 40.402344 C 51.714844 40.402344 52.402344 39.378906 51.851562 38.238281 C 51.507812 37.496094 50.378906 37.183594 49.605469 37.613281 Z M 49.605469 37.613281 " fill-opacity="1" fill-rule="nonzero"/><g clip-path="url(#id2)"><path fill="#000000" d="M 49.871094 46.960938 C 50.140625 47.640625 51.820312 51.972656 53.621094 56.613281 C 55.40625 61.242188 56.921875 64.980469 56.96875 64.921875 C 57.027344 64.847656 57.695312 63.4375 58.453125 61.761719 C 59.214844 60.085938 59.867188 58.691406 59.882812 58.660156 C 59.914062 58.632812 61.625 60.21875 63.660156 62.207031 L 67.394531 65.828125 L 68.839844 64.386719 L 70.28125 62.949219 L 66.800781 59.476562 L 63.332031 56.023438 L 65.164062 55.308594 C 66.175781 54.925781 67.203125 54.523438 67.441406 54.433594 C 67.84375 54.273438 67.351562 54.035156 58.753906 50.042969 C 53.753906 47.714844 49.605469 45.800781 49.53125 45.773438 C 49.457031 45.742188 49.605469 46.277344 49.871094 46.960938 Z M 49.871094 46.960938 " fill-opacity="1" fill-rule="nonzero"/></g><g clip-path="url(#id3)"><path fill="#000000" d="M 59.660156 47.730469 C 59.691406 47.757812 61.25 48.5 63.109375 49.363281 L 66.515625 50.933594 L 74.371094 50.933594 L 74.371094 47.671875 L 66.976562 47.671875 C 62.917969 47.671875 59.628906 47.699219 59.660156 47.730469 Z M 59.660156 47.730469 " fill-opacity="1" fill-rule="nonzero"/></g></svg>