<svg xmlns="http://www.w3.org/2000/svg" xmlns:xlink="http://www.w3.org/1999/xlink" width="100" zoomAndPan="magnify" viewBox="0 0 75 74.999997" height="100" preserveAspectRatio="xMidYMid meet" version="1.0"><defs><clipPath id="id1"><path d="M 15 6.410156 L 59 6.410156 L 59 38 L 15 38 Z M 15 6.410156 " clip-rule="nonzero"/></clipPath><clipPath id="id2"><path d="M 24 6.410156 L 29 6.410156 L 29 17 L 24 17 Z M 24 6.410156 " clip-rule="nonzero"/></clipPath><clipPath id="id3"><path d="M 7.5 50 L 25 50 L 25 67.160156 L 7.5 67.160156 Z M 7.5 50 " clip-rule="nonzero"/></clipPath><clipPath id="id4"><path d="M 28 50 L 46 50 L 46 67.160156 L 28 67.160156 Z M 28 50 " clip-rule="nonzero"/></clipPath><clipPath id="id5"><path d="M 49 50 L 66.75 50 L 66.75 67.160156 L 49 67.160156 Z M 49 50 " clip-rule="nonzero"/></clipPath></defs><g clip-path="url(#id1)"><path stroke-linecap="round" transform="matrix(2.116071, 0, 0, 2.09388, 3.267858, 4.331773)" fill="none" stroke-linejoin="round" d="M 22.999999 14.999192 L 9 14.999192 C 7.899789 14.999192 7.000791 14.099994 7.000791 12.999316 L 7.000791 3.999875 C 7.000791 2.899197 7.899789 1.999999 9 1.999999 L 22.999999 1.999999 C 24.10021 1.999999 24.999208 2.899197 24.999208 3.999875 L 24.999208 12.999316 C 24.999208 14.099994 24.10021 14.999192 22.999999 14.999192 Z M 22.999999 14.999192 " stroke="#000000" stroke-width="2" stroke-opacity="1" stroke-miterlimit="10"/></g><path stroke-linecap="round" transform="matrix(2.116071, 0, 0, 2.09388, 3.267858, 4.331773)" fill="none" stroke-linejoin="round" d="M 7.000791 5.999751 L 24.999208 5.999751 " stroke="#000000" stroke-width="2" stroke-opacity="1" stroke-miterlimit="10"/><g clip-path="url(#id2)"><path stroke-linecap="round" transform="matrix(2.116071, 0, 0, 2.09388, 3.267858, 4.331773)" fill="none" stroke-linejoin="round" d="M 10.999208 4.999813 L 10.999208 1.999999 " stroke="#000000" stroke-width="2" stroke-opacity="1" stroke-miterlimit="10"/></g><g clip-path="url(#id3)"><path stroke-linecap="round" transform="matrix(2.116071, 0, 0, 2.09388, 3.267858, 4.331773)" fill="none" stroke-linejoin="round" d="M 3.000527 23.000561 L 9 23.000561 L 9 29.000189 L 3.000527 29.000189 Z M 3.000527 23.000561 " stroke="#000000" stroke-width="2" stroke-opacity="1" stroke-miterlimit="10"/></g><g clip-path="url(#id4)"><path stroke-linecap="round" transform="matrix(2.116071, 0, 0, 2.09388, 3.267858, 4.331773)" fill="none" stroke-linejoin="round" d="M 13.000263 23.000561 L 18.999736 23.000561 L 18.999736 29.000189 L 13.000263 29.000189 Z M 13.000263 23.000561 " stroke="#000000" stroke-width="2" stroke-opacity="1" stroke-miterlimit="10"/></g><g clip-path="url(#id5)"><path stroke-linecap="round" transform="matrix(2.116071, 0, 0, 2.09388, 3.267858, 4.331773)" fill="none" stroke-linejoin="round" d="M 22.999999 23.000561 L 28.999472 23.000561 L 28.999472 29.000189 L 22.999999 29.000189 Z M 22.999999 23.000561 " stroke="#000000" stroke-width="2" stroke-opacity="1" stroke-miterlimit="10"/></g><path stroke-linecap="round" transform="matrix(2.116071, 0, 0, 2.09388, 3.267858, 4.331773)" fill="none" stroke-linejoin="round" d="M 6.000263 23.000561 L 6.000263 19.000809 L 25.999736 19.000809 L 25.999736 23.000561 " stroke="#000000" stroke-width="2" stroke-opacity="1" stroke-miterlimit="10"/><path stroke-linecap="round" transform="matrix(2.116071, 0, 0, 2.09388, 3.267858, 4.331773)" fill="none" stroke-linejoin="round" d="M 15.999999 14.999192 L 15.999999 23.000561 " stroke="#000000" stroke-width="2" stroke-opacity="1" stroke-miterlimit="10"/></svg>