<svg xmlns="http://www.w3.org/2000/svg" xmlns:xlink="http://www.w3.org/1999/xlink" width="100" zoomAndPan="magnify" viewBox="0 0 75 74.999997" height="100" preserveAspectRatio="xMidYMid meet" version="1.0"><defs><clipPath id="id1"><path d="M 10 4.863281 L 22 4.863281 L 22 9 L 10 9 Z M 10 4.863281 " clip-rule="nonzero"/></clipPath><clipPath id="id2"><path d="M 55 4.863281 L 68 4.863281 L 68 9 L 55 9 Z M 55 4.863281 " clip-rule="nonzero"/></clipPath><clipPath id="id3"><path d="M 6.144531 36 L 10 36 L 10 49 L 6.144531 49 Z M 6.144531 36 " clip-rule="nonzero"/></clipPath><clipPath id="id4"><path d="M 10 66 L 22 66 L 22 70.113281 L 10 70.113281 Z M 10 66 " clip-rule="nonzero"/></clipPath><clipPath id="id5"><path d="M 55 66 L 68 66 L 68 70.113281 L 55 70.113281 Z M 55 66 " clip-rule="nonzero"/></clipPath><clipPath id="id6"><path d="M 67 36 L 71.394531 36 L 71.394531 49 L 67 49 Z M 67 36 " clip-rule="nonzero"/></clipPath></defs><path fill="#08475e" d="M 61.710938 50.871094 L 52.789062 50.871094 L 52.789062 54.695312 L 59.796875 54.695312 L 59.796875 68.839844 L 63.621094 68.839844 L 63.621094 52.78125 C 63.621094 51.726562 62.765625 50.871094 61.710938 50.871094 Z M 61.710938 50.871094 " fill-opacity="1" fill-rule="nonzero"/><path fill="#0a789b" d="M 15.832031 50.871094 C 14.773438 50.871094 13.917969 51.726562 13.917969 52.78125 L 13.917969 68.839844 L 17.742188 68.839844 L 17.742188 54.695312 L 24.75 54.695312 L 24.75 50.871094 Z M 15.832031 50.871094 " fill-opacity="1" fill-rule="nonzero"/><path fill="#0a789b" d="M 7.417969 40.675781 L 24.75 40.675781 L 24.75 44.5 L 7.417969 44.5 Z M 7.417969 40.675781 " fill-opacity="1" fill-rule="nonzero"/><path fill="#08475e" d="M 52.789062 40.675781 L 70.121094 40.675781 L 70.121094 44.5 L 52.789062 44.5 Z M 52.789062 40.675781 " fill-opacity="1" fill-rule="nonzero"/><path fill="#0a789b" d="M 17.742188 25.382812 L 17.742188 6.140625 L 13.917969 6.140625 L 13.917969 27.292969 C 13.917969 28.351562 14.773438 29.207031 15.832031 29.207031 L 28.574219 29.207031 L 28.574219 25.382812 Z M 17.742188 25.382812 " fill-opacity="1" fill-rule="nonzero"/><path fill="#08475e" d="M 59.796875 6.140625 L 59.796875 25.382812 L 48.964844 25.382812 L 48.964844 29.207031 L 61.710938 29.207031 C 62.765625 29.207031 63.621094 28.351562 63.621094 27.292969 L 63.621094 6.140625 Z M 59.796875 6.140625 " fill-opacity="1" fill-rule="nonzero"/><path fill="#fff5f5" d="M 48.964844 36.851562 C 47.910156 36.851562 47.054688 35.996094 47.054688 34.941406 L 47.054688 27.292969 C 47.054688 22.726562 43.335938 19.011719 38.769531 19.011719 C 34.203125 19.011719 30.488281 22.726562 30.488281 27.292969 L 30.488281 34.941406 C 30.488281 35.996094 29.628906 36.851562 28.574219 36.851562 C 27.519531 36.851562 26.664062 35.996094 26.664062 34.941406 L 26.664062 27.292969 C 26.664062 20.617188 32.09375 15.1875 38.769531 15.1875 C 45.445312 15.1875 50.878906 20.617188 50.878906 27.292969 L 50.878906 34.941406 C 50.878906 35.996094 50.019531 36.851562 48.964844 36.851562 Z M 48.964844 36.851562 " fill-opacity="1" fill-rule="nonzero"/><path fill="#e2dff4" d="M 47.054688 27.292969 L 47.054688 34.941406 C 47.054688 35.996094 47.910156 36.851562 48.964844 36.851562 C 50.019531 36.851562 50.878906 35.996094 50.878906 34.941406 L 50.878906 27.292969 C 50.878906 20.617188 45.445312 15.1875 38.769531 15.1875 L 38.769531 19.011719 C 43.335938 19.011719 47.054688 22.726562 47.054688 27.292969 Z M 47.054688 27.292969 " fill-opacity="1" fill-rule="nonzero"/><path fill="#a2e786" d="M 48.964844 59.792969 L 28.574219 59.792969 C 25.414062 59.792969 22.839844 57.21875 22.839844 54.058594 L 22.839844 38.765625 C 22.839844 35.601562 25.414062 33.03125 28.574219 33.03125 L 48.964844 33.03125 C 52.128906 33.03125 54.699219 35.601562 54.699219 38.765625 L 54.699219 54.058594 C 54.699219 57.21875 52.128906 59.792969 48.964844 59.792969 Z M 48.964844 59.792969 " fill-opacity="1" fill-rule="nonzero"/><path fill="#00cb75" d="M 48.964844 33.03125 L 38.769531 33.03125 L 38.769531 59.792969 L 48.964844 59.792969 C 52.128906 59.792969 54.699219 57.21875 54.699219 54.058594 L 54.699219 38.765625 C 54.699219 35.601562 52.128906 33.03125 48.964844 33.03125 Z M 48.964844 33.03125 " fill-opacity="1" fill-rule="nonzero"/><path fill="#0a789b" d="M 35.617188 51.367188 L 32.011719 47.761719 C 31.265625 47.015625 31.265625 45.804688 32.011719 45.058594 C 32.757812 44.3125 33.96875 44.3125 34.714844 45.058594 L 36.96875 47.3125 L 42.824219 41.453125 C 43.570312 40.707031 44.78125 40.707031 45.527344 41.453125 C 46.277344 42.203125 46.277344 43.410156 45.527344 44.15625 L 38.320312 51.367188 C 37.574219 52.113281 36.363281 52.113281 35.617188 51.367188 Z M 35.617188 51.367188 " fill-opacity="1" fill-rule="nonzero"/><path fill="#08475e" d="M 45.527344 41.453125 C 44.78125 40.707031 43.570312 40.707031 42.824219 41.453125 L 38.769531 45.507812 L 38.769531 50.917969 L 45.527344 44.15625 C 46.273438 43.410156 46.273438 42.199219 45.527344 41.453125 Z M 45.527344 41.453125 " fill-opacity="1" fill-rule="nonzero"/><g clip-path="url(#id1)"><path fill="#ffe278" d="M 19.652344 8.6875 C 20.710938 8.6875 21.566406 7.832031 21.566406 6.777344 C 21.566406 5.722656 20.710938 4.863281 19.652344 4.863281 L 12.007812 4.863281 C 10.953125 4.863281 10.097656 5.722656 10.097656 6.777344 C 10.097656 7.832031 10.953125 8.6875 12.007812 8.6875 Z M 19.652344 8.6875 " fill-opacity="1" fill-rule="nonzero"/></g><g clip-path="url(#id2)"><path fill="#ffc178" d="M 65.53125 4.863281 L 57.886719 4.863281 C 56.832031 4.863281 55.976562 5.722656 55.976562 6.777344 C 55.976562 7.832031 56.832031 8.6875 57.886719 8.6875 L 65.53125 8.6875 C 66.589844 8.6875 67.445312 7.832031 67.445312 6.777344 C 67.445312 5.722656 66.589844 4.863281 65.53125 4.863281 Z M 65.53125 4.863281 " fill-opacity="1" fill-rule="nonzero"/></g><g clip-path="url(#id3)"><path fill="#ffe278" d="M 9.96875 38.765625 C 9.96875 37.707031 9.113281 36.851562 8.058594 36.851562 C 7 36.851562 6.144531 37.707031 6.144531 38.765625 L 6.144531 46.410156 C 6.144531 47.464844 7 48.324219 8.058594 48.324219 C 9.113281 48.324219 9.96875 47.464844 9.96875 46.410156 Z M 9.96875 38.765625 " fill-opacity="1" fill-rule="nonzero"/></g><g clip-path="url(#id4)"><path fill="#ffe278" d="M 12.007812 66.292969 C 10.953125 66.292969 10.097656 67.148438 10.097656 68.203125 C 10.097656 69.257812 10.953125 70.113281 12.007812 70.113281 L 19.652344 70.113281 C 20.710938 70.113281 21.566406 69.257812 21.566406 68.203125 C 21.566406 67.148438 20.710938 66.292969 19.652344 66.292969 Z M 12.007812 66.292969 " fill-opacity="1" fill-rule="nonzero"/></g><g clip-path="url(#id5)"><path fill="#ffc178" d="M 57.886719 66.292969 C 56.832031 66.292969 55.976562 67.148438 55.976562 68.203125 C 55.976562 69.257812 56.832031 70.113281 57.886719 70.113281 L 65.53125 70.113281 C 66.589844 70.113281 67.445312 69.257812 67.445312 68.203125 C 67.445312 67.148438 66.589844 66.292969 65.53125 66.292969 Z M 57.886719 66.292969 " fill-opacity="1" fill-rule="nonzero"/></g><g clip-path="url(#id6)"><path fill="#ffc178" d="M 67.570312 46.410156 C 67.570312 47.464844 68.429688 48.324219 69.484375 48.324219 C 70.539062 48.324219 71.394531 47.464844 71.394531 46.410156 L 71.394531 38.765625 C 71.394531 37.707031 70.539062 36.851562 69.484375 36.851562 C 68.429688 36.851562 67.570312 37.707031 67.570312 38.765625 Z M 67.570312 46.410156 " fill-opacity="1" fill-rule="nonzero"/></g></svg>