<svg xmlns="http://www.w3.org/2000/svg" xmlns:xlink="http://www.w3.org/1999/xlink" width="1640" zoomAndPan="magnify" viewBox="0 0 1230 693.000001" height="924" preserveAspectRatio="xMidYMid meet" version="1.0"><defs><clipPath id="id1"><path d="M 0.886719 453 L 1211.632812 453 L 1211.632812 691.996094 L 0.886719 691.996094 Z M 0.886719 453 " clip-rule="nonzero"/></clipPath><clipPath id="id2"><path d="M 0.886719 435 L 349 435 L 349 446 L 0.886719 446 Z M 0.886719 435 " clip-rule="nonzero"/></clipPath><clipPath id="id3"><path d="M 344 230.660156 L 811 230.660156 L 811 475 L 344 475 Z M 344 230.660156 " clip-rule="nonzero"/></clipPath><clipPath id="id4"><path d="M 0.886719 497 L 452 497 L 452 651 L 0.886719 651 Z M 0.886719 497 " clip-rule="nonzero"/></clipPath></defs><g clip-path="url(#id1)"><path fill="#393536" d="M 519.601562 577.875 L 660.511719 577.875 L 747.140625 664.441406 L 915.109375 664.441406 C 917.472656 680.0625 930.960938 692.042969 947.253906 692.042969 C 965.207031 692.042969 979.761719 677.492188 979.761719 659.558594 C 979.761719 641.613281 965.207031 627.070312 947.253906 627.070312 C 931.179688 627.070312 917.839844 638.730469 915.222656 654.039062 L 751.449219 654.039062 L 675.222656 577.875 L 1073.804688 577.875 C 1076.167969 593.503906 1089.65625 605.476562 1105.953125 605.476562 C 1123.902344 605.476562 1138.460938 590.933594 1138.460938 572.988281 C 1138.460938 555.054688 1123.902344 540.503906 1105.953125 540.503906 C 1089.878906 540.503906 1076.535156 552.167969 1073.917969 567.480469 L 906.789062 567.480469 L 983.011719 491.3125 L 1146.785156 491.3125 C 1149.410156 506.625 1162.746094 518.289062 1178.820312 518.289062 C 1196.777344 518.289062 1211.332031 503.738281 1211.332031 485.804688 C 1211.332031 467.863281 1196.777344 453.320312 1178.820312 453.320312 C 1162.53125 453.320312 1149.035156 465.292969 1146.679688 480.917969 L 978.703125 480.917969 L 892.074219 567.480469 L 523.914062 567.480469 L 437.285156 480.917969 L 0.757812 480.917969 L 0.757812 491.3125 L 432.976562 491.3125 L 519.601562 577.875 " fill-opacity="1" fill-rule="nonzero"/></g><g clip-path="url(#id2)"><path fill="#393536" d="M 348.847656 435.257812 L 0.757812 435.257812 L 0.757812 445.652344 L 345.828125 445.652344 L 348.847656 435.257812 " fill-opacity="1" fill-rule="nonzero"/></g><g clip-path="url(#id3)"><path fill="#393536" d="M 355.074219 474.425781 L 389.65625 355.34375 L 551.316406 355.34375 C 553.980469 370.597656 567.292969 382.195312 583.328125 382.195312 C 601.28125 382.195312 615.835938 367.652344 615.835938 349.71875 C 615.835938 331.777344 601.28125 317.234375 583.328125 317.234375 C 566.988281 317.234375 553.472656 329.269531 551.171875 344.953125 L 505.714844 344.953125 L 581.9375 268.777344 L 745.710938 268.777344 C 748.332031 284.097656 761.671875 295.753906 777.742188 295.753906 C 795.695312 295.753906 810.25 281.210938 810.25 263.269531 C 810.25 245.332031 795.695312 230.785156 777.742188 230.785156 C 761.449219 230.785156 747.960938 242.761719 745.597656 258.382812 L 577.628906 258.382812 L 491 344.953125 L 381.84375 344.953125 L 344.242188 474.425781 L 355.074219 474.425781 " fill-opacity="1" fill-rule="nonzero"/></g><path fill="#393536" d="M 633.671875 435.257812 L 373.21875 435.257812 L 370.199219 445.652344 L 548.769531 445.652344 L 635.398438 532.214844 L 803.367188 532.214844 C 805.730469 547.835938 819.21875 559.8125 835.515625 559.8125 C 853.472656 559.8125 868.027344 545.269531 868.027344 527.328125 C 868.027344 509.386719 853.472656 494.84375 835.515625 494.84375 C 819.441406 494.84375 806.097656 506.507812 803.480469 521.820312 L 639.707031 521.820312 L 563.480469 445.652344 L 897.589844 445.652344 C 900.074219 461.125 913.492188 472.9375 929.679688 472.9375 C 947.632812 472.9375 962.1875 458.394531 962.1875 440.453125 C 962.1875 422.511719 947.632812 407.96875 929.679688 407.96875 C 913.492188 407.96875 900.074219 419.789062 897.589844 435.257812 L 783.730469 435.257812 L 859.953125 359.085938 L 1023.726562 359.085938 C 1026.347656 374.40625 1039.683594 386.0625 1055.757812 386.0625 C 1073.710938 386.0625 1088.265625 371.519531 1088.265625 353.578125 C 1088.265625 335.636719 1073.710938 321.09375 1055.757812 321.09375 C 1039.464844 321.09375 1025.976562 333.070312 1023.613281 348.691406 L 855.644531 348.691406 L 769.015625 435.257812 L 633.671875 435.257812 " fill-opacity="1" fill-rule="nonzero"/><g clip-path="url(#id4)"><path fill="#393536" d="M 131.984375 535.957031 L 218.609375 622.523438 L 386.589844 622.523438 C 388.945312 638.144531 402.4375 650.121094 418.730469 650.121094 C 436.6875 650.121094 451.238281 635.578125 451.238281 617.636719 C 451.238281 599.695312 436.6875 585.152344 418.730469 585.152344 C 402.65625 585.152344 389.3125 596.808594 386.695312 612.128906 L 222.925781 612.128906 L 146.695312 535.957031 L 337.203125 535.957031 L 348.28125 497.808594 L 337.445312 497.808594 L 329.386719 525.5625 L 0.757812 525.5625 L 0.757812 535.957031 L 131.984375 535.957031 " fill-opacity="1" fill-rule="nonzero"/></g></svg>