<svg xmlns="http://www.w3.org/2000/svg" xmlns:xlink="http://www.w3.org/1999/xlink" width="100" zoomAndPan="magnify" viewBox="0 0 75 74.999997" height="100" preserveAspectRatio="xMidYMid meet" version="1.0"><defs><clipPath id="id1"><path d="M 6 5 L 67.371094 5 L 67.371094 68.472656 L 6 68.472656 Z M 6 5 " clip-rule="nonzero"/></clipPath></defs><g clip-path="url(#id1)"><path fill="#231f20" d="M 66.585938 18.863281 C 66.152344 18.394531 65.613281 18.164062 64.972656 18.167969 L 30.078125 18.167969 C 29.789062 18.167969 29.511719 18.222656 29.246094 18.332031 C 28.976562 18.445312 28.742188 18.601562 28.535156 18.804688 C 28.332031 19.011719 28.175781 19.246094 28.0625 19.511719 C 27.953125 19.78125 27.898438 20.058594 27.898438 20.347656 C 27.898438 20.636719 27.953125 20.914062 28.0625 21.183594 C 28.175781 21.449219 28.332031 21.6875 28.535156 21.890625 C 28.742188 22.09375 28.976562 22.253906 29.246094 22.363281 C 29.511719 22.472656 29.789062 22.53125 30.078125 22.53125 L 62.59375 22.53125 L 60.828125 43.210938 C 60.734375 43.707031 60.558594 44.171875 60.292969 44.601562 C 60.023438 45.035156 59.691406 45.402344 59.289062 45.707031 C 58.882812 46.015625 58.441406 46.238281 57.953125 46.378906 C 57.46875 46.519531 56.972656 46.570312 56.46875 46.523438 L 29.816406 46.523438 C 29.3125 46.570312 28.816406 46.519531 28.332031 46.378906 C 27.84375 46.238281 27.398438 46.015625 26.996094 45.707031 C 26.59375 45.402344 26.257812 45.035156 25.992188 44.601562 C 25.726562 44.171875 25.546875 43.707031 25.457031 43.210938 L 23.535156 20.171875 L 23.535156 20 C 23.535156 20 23.535156 19.867188 23.535156 19.824219 L 22.074219 14.238281 C 21.75 12.914062 21.136719 11.734375 20.242188 10.703125 C 19.34375 9.671875 18.261719 8.902344 16.992188 8.394531 L 9.078125 5.230469 C 8.808594 5.125 8.53125 5.074219 8.238281 5.078125 C 7.949219 5.082031 7.671875 5.140625 7.40625 5.253906 C 7.140625 5.367188 6.90625 5.53125 6.707031 5.738281 C 6.503906 5.945312 6.347656 6.183594 6.242188 6.453125 C 6.136719 6.722656 6.082031 7 6.089844 7.289062 C 6.09375 7.578125 6.152344 7.859375 6.265625 8.125 C 6.378906 8.390625 6.542969 8.625 6.75 8.824219 C 6.957031 9.027344 7.195312 9.179688 7.464844 9.289062 L 15.359375 12.453125 C 15.976562 12.695312 16.507812 13.066406 16.945312 13.566406 C 17.382812 14.070312 17.683594 14.640625 17.84375 15.289062 L 19.175781 20.695312 L 21.136719 43.578125 C 21.207031 44.097656 21.324219 44.605469 21.488281 45.097656 C 21.652344 45.59375 21.859375 46.070312 22.109375 46.527344 C 22.363281 46.984375 22.652344 47.414062 22.984375 47.816406 C 23.316406 48.222656 23.683594 48.589844 24.082031 48.925781 C 24.484375 49.261719 24.910156 49.554688 25.363281 49.8125 C 25.820312 50.066406 26.292969 50.277344 26.789062 50.445312 C 27.28125 50.613281 27.789062 50.734375 28.304688 50.808594 C 28.820312 50.882812 29.339844 50.910156 29.859375 50.886719 L 30.078125 50.886719 L 30.078125 55.644531 C 29.597656 55.8125 29.140625 56.039062 28.710938 56.316406 C 28.28125 56.59375 27.890625 56.917969 27.535156 57.285156 C 27.183594 57.65625 26.875 58.058594 26.617188 58.5 C 26.359375 58.941406 26.152344 59.410156 26.003906 59.898438 C 25.855469 60.386719 25.761719 60.886719 25.730469 61.398438 C 25.699219 61.90625 25.726562 62.414062 25.8125 62.917969 C 25.898438 63.425781 26.042969 63.910156 26.242188 64.382812 C 26.441406 64.851562 26.695312 65.292969 27 65.703125 C 27.304688 66.117188 27.652344 66.488281 28.042969 66.816406 C 28.433594 67.144531 28.859375 67.425781 29.316406 67.65625 C 29.769531 67.886719 30.25 68.0625 30.746094 68.179688 C 31.242188 68.296875 31.75 68.355469 32.261719 68.355469 C 32.769531 68.355469 33.277344 68.296875 33.773438 68.179688 C 34.269531 68.0625 34.75 67.886719 35.207031 67.65625 C 35.660156 67.425781 36.085938 67.144531 36.476562 66.816406 C 36.867188 66.488281 37.214844 66.117188 37.519531 65.703125 C 37.824219 65.292969 38.078125 64.851562 38.277344 64.382812 C 38.476562 63.910156 38.621094 63.425781 38.707031 62.917969 C 38.792969 62.414062 38.820312 61.90625 38.789062 61.398438 C 38.757812 60.886719 38.664062 60.386719 38.515625 59.898438 C 38.367188 59.410156 38.160156 58.941406 37.902344 58.5 C 37.644531 58.058594 37.339844 57.65625 36.984375 57.285156 C 36.628906 56.917969 36.238281 56.59375 35.808594 56.316406 C 35.378906 56.039062 34.921875 55.8125 34.441406 55.644531 L 34.441406 50.886719 L 51.886719 50.886719 L 51.886719 55.644531 C 51.40625 55.8125 50.949219 56.039062 50.519531 56.316406 C 50.089844 56.59375 49.699219 56.917969 49.34375 57.285156 C 48.992188 57.65625 48.683594 58.058594 48.425781 58.5 C 48.167969 58.941406 47.960938 59.410156 47.8125 59.898438 C 47.664062 60.386719 47.570312 60.886719 47.539062 61.398438 C 47.507812 61.90625 47.535156 62.414062 47.621094 62.917969 C 47.707031 63.425781 47.851562 63.910156 48.050781 64.382812 C 48.25 64.851562 48.503906 65.292969 48.808594 65.703125 C 49.113281 66.117188 49.460938 66.488281 49.851562 66.816406 C 50.242188 67.144531 50.667969 67.425781 51.125 67.65625 C 51.578125 67.886719 52.058594 68.0625 52.554688 68.179688 C 53.050781 68.296875 53.558594 68.355469 54.070312 68.355469 C 54.578125 68.355469 55.085938 68.296875 55.582031 68.179688 C 56.078125 68.0625 56.558594 67.886719 57.015625 67.65625 C 57.46875 67.425781 57.894531 67.144531 58.285156 66.816406 C 58.675781 66.488281 59.023438 66.117188 59.328125 65.703125 C 59.632812 65.292969 59.886719 64.851562 60.085938 64.382812 C 60.285156 63.910156 60.429688 63.425781 60.515625 62.917969 C 60.601562 62.414062 60.628906 61.90625 60.597656 61.398438 C 60.566406 60.886719 60.472656 60.386719 60.324219 59.898438 C 60.175781 59.410156 59.96875 58.941406 59.710938 58.5 C 59.453125 58.058594 59.148438 57.65625 58.792969 57.285156 C 58.4375 56.917969 58.046875 56.59375 57.617188 56.316406 C 57.1875 56.039062 56.730469 55.8125 56.25 55.644531 L 56.25 50.886719 L 56.511719 50.886719 C 57.03125 50.910156 57.550781 50.882812 58.066406 50.808594 C 58.585938 50.734375 59.089844 50.613281 59.582031 50.445312 C 60.078125 50.277344 60.550781 50.066406 61.007812 49.8125 C 61.460938 49.554688 61.890625 49.261719 62.289062 48.925781 C 62.6875 48.589844 63.054688 48.222656 63.386719 47.816406 C 63.71875 47.414062 64.007812 46.984375 64.261719 46.527344 C 64.511719 46.070312 64.722656 45.59375 64.882812 45.097656 C 65.046875 44.605469 65.164062 44.097656 65.234375 43.578125 L 67.152344 20.523438 C 67.207031 19.886719 67.019531 19.335938 66.585938 18.863281 Z M 32.261719 63.976562 C 31.972656 63.976562 31.691406 63.921875 31.425781 63.808594 C 31.15625 63.699219 30.921875 63.542969 30.71875 63.335938 C 30.511719 63.132812 30.355469 62.898438 30.246094 62.628906 C 30.132812 62.363281 30.078125 62.082031 30.078125 61.792969 C 30.078125 61.503906 30.132812 61.226562 30.246094 60.960938 C 30.355469 60.691406 30.511719 60.457031 30.71875 60.253906 C 30.921875 60.046875 31.15625 59.890625 31.425781 59.777344 C 31.691406 59.667969 31.972656 59.613281 32.261719 59.613281 C 32.550781 59.613281 32.828125 59.667969 33.09375 59.777344 C 33.363281 59.890625 33.597656 60.046875 33.800781 60.253906 C 34.007812 60.457031 34.164062 60.691406 34.273438 60.960938 C 34.386719 61.226562 34.441406 61.503906 34.441406 61.792969 C 34.441406 62.082031 34.386719 62.363281 34.273438 62.628906 C 34.164062 62.898438 34.007812 63.132812 33.800781 63.335938 C 33.597656 63.542969 33.363281 63.699219 33.09375 63.808594 C 32.828125 63.921875 32.550781 63.976562 32.261719 63.976562 Z M 54.070312 63.976562 C 53.777344 63.976562 53.5 63.921875 53.234375 63.808594 C 52.964844 63.699219 52.730469 63.542969 52.527344 63.335938 C 52.320312 63.132812 52.164062 62.898438 52.054688 62.628906 C 51.941406 62.363281 51.886719 62.082031 51.886719 61.792969 C 51.886719 61.503906 51.941406 61.226562 52.054688 60.960938 C 52.164062 60.691406 52.320312 60.457031 52.527344 60.253906 C 52.730469 60.046875 52.964844 59.890625 53.234375 59.777344 C 53.5 59.667969 53.777344 59.613281 54.070312 59.613281 C 54.359375 59.613281 54.636719 59.667969 54.902344 59.777344 C 55.171875 59.890625 55.40625 60.046875 55.609375 60.253906 C 55.816406 60.457031 55.972656 60.691406 56.082031 60.960938 C 56.195312 61.226562 56.25 61.503906 56.25 61.792969 C 56.25 62.082031 56.195312 62.363281 56.082031 62.628906 C 55.972656 62.898438 55.816406 63.132812 55.609375 63.335938 C 55.40625 63.542969 55.171875 63.699219 54.902344 63.808594 C 54.636719 63.921875 54.359375 63.976562 54.070312 63.976562 Z M 54.070312 63.976562 " fill-opacity="1" fill-rule="nonzero"/></g><path fill="#231f20" d="M 34.441406 39.980469 L 34.441406 29.074219 C 34.441406 28.785156 34.386719 28.507812 34.273438 28.238281 C 34.164062 27.972656 34.007812 27.734375 33.800781 27.53125 C 33.597656 27.328125 33.363281 27.167969 33.09375 27.058594 C 32.828125 26.949219 32.550781 26.890625 32.261719 26.890625 C 31.972656 26.890625 31.691406 26.949219 31.425781 27.058594 C 31.15625 27.167969 30.921875 27.328125 30.71875 27.53125 C 30.511719 27.734375 30.355469 27.972656 30.246094 28.238281 C 30.132812 28.507812 30.078125 28.785156 30.078125 29.074219 L 30.078125 39.980469 C 30.078125 40.269531 30.132812 40.546875 30.246094 40.816406 C 30.355469 41.082031 30.511719 41.320312 30.71875 41.523438 C 30.921875 41.726562 31.15625 41.886719 31.425781 41.996094 C 31.691406 42.105469 31.972656 42.160156 32.261719 42.160156 C 32.550781 42.160156 32.828125 42.105469 33.09375 41.996094 C 33.363281 41.886719 33.597656 41.726562 33.800781 41.523438 C 34.007812 41.320312 34.164062 41.082031 34.273438 40.816406 C 34.386719 40.546875 34.441406 40.269531 34.441406 39.980469 Z M 34.441406 39.980469 " fill-opacity="1" fill-rule="nonzero"/><path fill="#231f20" d="M 45.34375 39.980469 L 45.34375 29.074219 C 45.34375 28.785156 45.289062 28.507812 45.179688 28.238281 C 45.070312 27.972656 44.910156 27.734375 44.707031 27.53125 C 44.5 27.328125 44.265625 27.167969 44 27.058594 C 43.730469 26.949219 43.453125 26.890625 43.164062 26.890625 C 42.875 26.890625 42.597656 26.949219 42.328125 27.058594 C 42.0625 27.167969 41.828125 27.328125 41.621094 27.53125 C 41.417969 27.734375 41.261719 27.972656 41.148438 28.238281 C 41.039062 28.507812 40.984375 28.785156 40.984375 29.074219 L 40.984375 39.980469 C 40.984375 40.269531 41.039062 40.546875 41.148438 40.816406 C 41.261719 41.082031 41.417969 41.320312 41.621094 41.523438 C 41.828125 41.726562 42.0625 41.886719 42.328125 41.996094 C 42.597656 42.105469 42.875 42.160156 43.164062 42.160156 C 43.453125 42.160156 43.730469 42.105469 44 41.996094 C 44.265625 41.886719 44.5 41.726562 44.707031 41.523438 C 44.910156 41.320312 45.070312 41.082031 45.179688 40.816406 C 45.289062 40.546875 45.34375 40.269531 45.34375 39.980469 Z M 45.34375 39.980469 " fill-opacity="1" fill-rule="nonzero"/><path fill="#231f20" d="M 56.25 39.980469 L 56.25 29.074219 C 56.25 28.785156 56.195312 28.507812 56.082031 28.238281 C 55.972656 27.972656 55.816406 27.734375 55.609375 27.53125 C 55.40625 27.328125 55.171875 27.167969 54.902344 27.058594 C 54.636719 26.949219 54.359375 26.890625 54.070312 26.890625 C 53.777344 26.890625 53.5 26.949219 53.234375 27.058594 C 52.964844 27.167969 52.730469 27.328125 52.527344 27.53125 C 52.320312 27.734375 52.164062 27.972656 52.054688 28.238281 C 51.941406 28.507812 51.886719 28.785156 51.886719 29.074219 L 51.886719 39.980469 C 51.886719 40.269531 51.941406 40.546875 52.054688 40.816406 C 52.164062 41.082031 52.320312 41.320312 52.527344 41.523438 C 52.730469 41.726562 52.964844 41.886719 53.234375 41.996094 C 53.5 42.105469 53.777344 42.160156 54.070312 42.160156 C 54.359375 42.160156 54.636719 42.105469 54.902344 41.996094 C 55.171875 41.886719 55.40625 41.726562 55.609375 41.523438 C 55.816406 41.320312 55.972656 41.082031 56.082031 40.816406 C 56.195312 40.546875 56.25 40.269531 56.25 39.980469 Z M 56.25 39.980469 " fill-opacity="1" fill-rule="nonzero"/></svg>